<?xml version="1.0" encoding="UTF-8" standalone="no"?>
<svg width="512" height="512" viewBox="0 0 512 512" xmlns="http://www.w3.org/2000/svg">
   <style>
      @media (prefers-color-scheme: dark) {
        .bg-left { fill: #88c1dd }
        .bg-right { fill: #7ab1cd }
        .letter { fill: #151d23; stroke: #8fa3ae; }
        .letter-shadow { fill: #33414d; stroke: #33414d; }
      }
</style>
   <path class="bg-left" fill="#1565a2" d="M 0,0 H 506 L 0,506 Z" />
   <path class="bg-right" fill="#114f7e" d="M 512,512 H 6 L 512,6 Z" />
   <path class="letter-shadow" d="m 66.049088,353.26557 h 57.233082 l 15.4763,-40.00476 h 56.64908 l 15.76831,40.00476 h 57.2331 L 196.28357,165.21398 h -58.10911 z m 80.009522,-79.42552 21.02441,-55.18904 21.02439,55.18904 z" fill="#394146" stroke="#394146" stroke-width="5" />
   <path class="letter" d="m 59.569539,346.78602 h 57.233081 l 15.4763,-40.00476 H 188.928 l 15.76831,40.00476 h 57.2331 L 189.80402,158.73443 h -58.10911 z m 80.009521,-79.42552 21.02441,-55.18904 21.02439,55.18904 z" fill="#f6f8f8" stroke="#143752" stroke-width="5" />
   <path class="letter-shadow" d="m 288.84935,353.26557 h 54.89704 v -50.51696 h 40.88078 c 42.04881,0 68.91332,-28.61654 68.91332,-68.32931 0,-38.5447 -21.60841,-69.20532 -67.74528,-69.20532 h -96.94586 z m 54.89704,-92.56578 v -53.437 h 29.78458 c 16.35231,0 23.94446,10.51221 23.94446,27.15651 0,15.47629 -8.46817,26.28049 -25.40449,26.28049 z" fill="#394146" stroke="#394146" stroke-width="5" />
   <path class="letter" d="m 282.3698,346.78602 h 54.89704 v -50.51696 h 40.88078 c 42.04881,0 68.91332,-28.61654 68.91332,-68.3293 0,-38.54471 -21.60841,-69.20533 -67.74528,-69.20533 H 282.3698 Z m 54.89704,-92.56578 v -53.437 h 29.78458 c 16.35231,0 23.94446,10.51221 23.94446,27.15652 0,15.47628 -8.46817,26.28048 -25.40449,26.28048 z" fill="#f6f8f8" stroke="#143752" stroke-width="5" />
</svg>
