<svg
   width="100"
   height="100"
   viewBox="0 0 100 100"
   xmlns="http://www.w3.org/2000/svg">
   <style>
      @media (prefers-color-scheme: dark) {
        .bg-left { fill: #88c1dd }
        .bg-right { fill: #7ab1cd }
        .letter { fill: #151d23; stroke: #8fa3ae; }
        .letter-shadow { fill: #33414d; stroke: #33414d; }
      }
   </style>
  <path
     class="bg-left"
     fill="#1565a2"
     d="M 0,0 H 98.828125 L 0,98.828125 Z"
     style="stroke-width:0.195312" />
  <path
     class="bg-right"
     fill="#114f7e"
     d="M 100,100 H 1.171875 L 100,1.171875 Z"
     style="stroke-width:0.195312" />
  <path
     class="letter-shadow"
     d="m 12.900213,68.997182 h 11.178336 l 3.022715,-7.81343 h 11.064273 l 3.079748,7.81343 h 11.17834 L 38.336635,32.268355 H 26.987199 Z m 15.626859,-15.512797 4.10633,-10.77911 4.106327,10.77911 z"
     fill="#394146"
     stroke="#394146"
     stroke-width="0.976562" />
  <path
     class="letter"
     d="m 11.634676,67.731645 h 11.178336 l 3.022715,-7.81343 H 36.9 l 3.079748,7.81343 h 11.17834 L 37.071098,31.002818 H 25.721662 Z m 15.626859,-15.512797 4.10633,-10.77911 4.106326,10.77911 z"
     fill="#f6f8f8"
     stroke="#143752"
     stroke-width="0.976562" />
  <path
     class="letter-shadow"
     d="m 56.415889,68.997182 h 10.722078 v -9.866594 h 7.984527 c 8.212658,0 13.459633,-5.589168 13.459633,-13.345568 0,-7.528262 -4.220393,-13.516665 -13.2315,-13.516665 H 56.415889 Z M 67.137967,50.917928 V 40.481014 h 5.817301 c 3.19381,0 4.676652,2.053166 4.676652,5.304006 0,3.022712 -1.65394,5.132908 -4.961815,5.132908 z"
     fill="#394146"
     stroke="#394146"
     stroke-width="0.976562" />
  <path
     class="letter"
     d="M 55.150352,67.731645 H 65.87243 v -9.866594 h 7.984527 c 8.212658,0 13.459633,-5.589168 13.459633,-13.345567 0,-7.528263 -4.220393,-13.516666 -13.2315,-13.516666 H 55.150352 Z M 65.87243,49.652391 V 39.215477 h 5.8173 c 3.193811,0 4.676653,2.053166 4.676653,5.304007 0,3.022711 -1.65394,5.132907 -4.961815,5.132907 z"
     fill="#f6f8f8"
     stroke="#143752"
     stroke-width="0.976562" />
</svg>
