<?xml version="1.0" encoding="UTF-8" standalone="no"?>
<svg
   width="100"
   height="40"
   viewBox="0 0 100 40"
   version="1.1"
   id="svg8"
   inkscape:version="1.3 (0e150ed6c4, 2023-07-21)"
   sodipodi:docname="cc-by-sa.svg"
   xmlns:inkscape="http://www.inkscape.org/namespaces/inkscape"
   xmlns:sodipodi="http://sodipodi.sourceforge.net/DTD/sodipodi-0.dtd"
   xmlns="http://www.w3.org/2000/svg"
   xmlns:svg="http://www.w3.org/2000/svg"
   xmlns:rdf="http://www.w3.org/1999/02/22-rdf-syntax-ns#"
   xmlns:cc="http://creativecommons.org/ns#"
   xmlns:dc="http://purl.org/dc/elements/1.1/">
  <defs
     id="defs2" />
  <sodipodi:namedview
     id="base"
     pagecolor="#ffffff"
     bordercolor="#666666"
     borderopacity="1.0"
     inkscape:pageopacity="0.0"
     inkscape:pageshadow="2"
     inkscape:zoom="2.4082226"
     inkscape:cx="36.956717"
     inkscape:cy="27.198482"
     inkscape:document-units="px"
     inkscape:current-layer="svg8"
     inkscape:document-rotation="0"
     showgrid="false"
     fit-margin-top="0"
     fit-margin-left="0"
     fit-margin-right="0"
     fit-margin-bottom="0"
     inkscape:window-width="1920"
     inkscape:window-height="1015"
     inkscape:window-x="0"
     inkscape:window-y="37"
     inkscape:window-maximized="1"
     inkscape:pagecheckerboard="0"
     units="px"
     inkscape:showpageshadow="2"
     inkscape:deskcolor="#d1d1d1" />
  <metadata
     id="metadata5">
    <rdf:RDF>
      <cc:Work
         rdf:about="">
        <dc:format>image/svg+xml</dc:format>
        <dc:type
           rdf:resource="http://purl.org/dc/dcmitype/StillImage" />
      </cc:Work>
    </rdf:RDF>
  </metadata>
  <path
     d="m 82.802205,12.372338 c 0,-1.418881 0.700478,-2.129264 2.102849,-2.129264 1.402371,0 2.102377,0.70944 2.102377,2.129264 0,1.401427 -0.700949,2.102377 -2.102377,2.102377 -1.401427,0 -2.102849,-0.70095 -2.102849,-2.102377 z"
     id="path839"
     style="stroke-width:0.471702" />
  <path
     d="m 88.975373,16.253505 v 6.172224 H 87.25083 v 7.331198 h -4.690608 v -7.330726 h -1.724544 v -6.172696 c 0,-0.269814 0.09434,-0.49859 0.28255,-0.687271 0.189153,-0.188209 0.4184,-0.283021 0.68727,-0.283021 h 6.200055 c 0.251418,0 0.47642,0.09434 0.673591,0.283021 0.1967,0.188681 0.296229,0.417929 0.296229,0.687271 z"
     id="path837"
     style="stroke-width:0.471702" />
  <path
     id="path4-3"
     d="m 84.878809,4.905526 c -4.169377,0 -7.708404,1.455113 -10.619751,4.366932 C 71.294409,12.291353 69.811052,15.867416 69.811052,20 c 0,4.133056 1.483357,7.681348 4.448006,10.646469 3.000499,2.965121 6.539997,4.448005 10.619751,4.448005 4.150508,0 7.752951,-1.50092 10.807695,-4.502361 C 98.562001,27.771333 100,24.241076 100,20 100,15.777321 98.534676,12.201729 95.606348,9.272458 92.695001,6.361111 89.118469,4.905526 84.878809,4.905526 Z m 0.05343,2.722423 c 3.414181,0 6.325372,1.203902 8.732941,3.61147 2.407097,2.408512 3.611471,5.327554 3.611471,8.75966 0,3.486352 -1.185846,6.370694 -3.558036,8.652789 -2.497664,2.462758 -5.427365,3.692545 -8.787296,3.692545 -3.378332,0 -6.289056,-1.221465 -8.732946,-3.665827 -2.443418,-2.442475 -3.664905,-5.335182 -3.664905,-8.677665 0,-3.324086 1.230261,-6.24452 3.692547,-8.76058 2.372191,-2.407569 5.274118,-3.612392 8.706224,-3.612392 z"
     style="stroke-width:0.471702" />
  <path
     d="m 43.395931,17.695499 c 0.287267,-1.85096 1.032557,-3.283992 2.236813,-4.299095 1.203784,-1.015104 2.667946,-1.522656 4.393433,-1.522656 2.371248,0 4.259,0.764158 5.660428,2.290587 1.401428,1.527372 2.102377,3.486352 2.102377,5.875996 0,2.318417 -0.727837,4.245321 -2.182566,5.781183 -1.456617,1.535863 -3.342483,2.304738 -5.661372,2.304738 -1.70709,0 -3.180687,-0.511797 -4.42032,-1.536335 -1.240106,-1.024537 -1.985395,-2.479739 -2.237284,-4.366548 h 3.801449 c 0.08962,1.833035 1.19482,2.749553 3.315593,2.749553 1.059444,0 1.913697,-0.458495 2.560401,-1.374541 0.647647,-0.916046 0.971235,-2.138698 0.971235,-3.665598 0,-1.599543 -0.296701,-2.816535 -0.889159,-3.652391 -0.593402,-0.835385 -1.44624,-1.253313 -2.561344,-1.253313 -2.013225,0 -3.144839,0.889158 -3.396255,2.667948 h 1.105197 l -2.991534,2.992008 -2.992008,-2.992008 z"
     id="path837-7"
     style="stroke-width:0.471702" />
  <path
     id="path4-5"
     d="m 49.97328,4.905526 c -4.150978,0 -7.690953,1.464827 -10.619748,4.39457 -2.964649,3.018895 -4.448007,6.586166 -4.448007,10.700825 0,4.133528 1.483358,7.680899 4.448007,10.645548 3.000498,2.965121 6.539997,4.448005 10.619748,4.448005 4.167962,0 7.771348,-1.491677 10.807696,-4.474722 C 63.656473,27.762651 65.094472,24.223623 65.094472,20 c 0,-4.222679 -1.465325,-7.789478 -4.393653,-10.700825 C 57.771076,6.369904 54.195488,4.905526 49.97328,4.905526 Z m 0.05344,2.722423 c 3.431634,0 6.342825,1.212201 8.732941,3.639109 2.407097,2.371719 3.611471,5.283383 3.611471,8.732942 0,3.468427 -1.185846,6.352769 -3.558037,8.65279 -2.497663,2.461814 -5.427364,3.692544 -8.787295,3.692544 -3.37833,0 -6.289054,-1.221465 -8.732944,-3.665827 C 38.849433,26.253542 37.627946,23.360879 37.627946,20 c 0,-3.323614 1.230261,-6.234806 3.692547,-8.732942 2.372191,-2.425965 5.274118,-3.639109 8.706222,-3.639109 z"
     style="stroke-width:0.471702" />
  <path
     id="path4"
     d="m 15.067296,4.905527 c -4.186958,0 -7.7182442,1.465367 -10.5933571,4.393783 C 3.0186925,10.755028 1.9089114,12.403834 1.1452027,14.245887 0.38149397,16.087941 0,18.005571 0,20.000462 c 0,2.012815 0.37755761,3.926511 1.132304,5.741678 0.7547477,1.815163 1.8552632,3.445936 3.3020181,4.892218 1.4467549,1.446282 3.0823798,2.551679 4.9060381,3.314917 1.8241278,0.764653 3.7334388,1.145198 5.7278558,1.145198 1.994419,0 3.926643,-0.385427 5.795113,-1.158099 1.869418,-0.772672 3.540664,-1.88823 5.013832,-3.343474 1.418928,-1.383545 2.493084,-2.978691 3.220944,-4.784424 0.726912,-1.805262 1.090845,-3.741421 1.090845,-5.808014 0,-2.048665 -0.369235,-3.984805 -1.105586,-5.808934 -0.736822,-1.823656 -1.814917,-3.446104 -3.23384,-4.8655 C 22.884786,6.379214 19.289631,4.905527 15.067296,4.905527 Z m 0.05436,2.722507 c 3.414285,0 6.334316,1.213182 8.761767,3.63922 1.167029,1.168914 2.056377,2.498676 2.666307,3.990245 0.610873,1.491566 0.916715,3.072594 0.916715,4.743882 0,3.469008 -1.176637,6.352963 -3.530503,8.653059 -1.22269,1.185892 -2.591561,2.092759 -4.110018,2.722505 -1.520343,0.62927 -3.087225,0.942508 -4.704268,0.942508 -1.635442,0 -3.199353,-0.309776 -4.690448,-0.929612 C 8.9386948,30.769062 7.6010602,29.87146 6.4151652,28.694053 5.2287976,27.517123 4.317072,26.178564 3.6788394,24.677093 3.0401347,23.177504 2.7215865,21.618901 2.7215865,20.001381 c 0,-1.635439 0.3185482,-3.203736 0.9572529,-4.704263 C 4.3166012,13.796585 5.2287976,12.444829 6.4151652,11.240537 8.7695027,8.832893 11.671519,7.628034 15.121655,7.628034 Z"
     style="stroke-width:0.471702" />
  <path
     d="m 23.639141,17.494232 -1.99489,1.051457 C 21.428674,18.097086 21.1631,17.78198 20.848937,17.602256 c -0.315106,-0.179251 -0.616534,-0.269351 -0.902866,-0.269351 -1.347696,0 -2.022249,0.889187 -2.022249,2.6685 0,0.808526 0.171228,1.454777 0.512282,1.940173 0.341051,0.485396 0.843904,0.728332 1.509967,0.728332 0.879753,0 1.50006,-0.431622 1.859035,-1.293922 l 1.886866,0.943438 c -0.412749,0.737289 -0.97032,1.316559 -1.67035,1.738746 -0.700968,0.422655 -1.464678,0.633515 -2.291129,0.633515 -1.366087,0 -2.457168,-0.412753 -3.274184,-1.240143 -0.818899,-0.826446 -1.227403,-1.976494 -1.227403,-3.449667 0,-1.437791 0.417466,-2.578401 1.253823,-3.423248 0.834936,-0.844371 1.890639,-1.26703 3.166632,-1.26703 1.868941,-9.43e-4 3.199655,0.726917 3.98978,2.182633 z"
     id="path846"
     style="stroke-width:0.471702" />
  <path
     d="m 14.932663,17.494232 -2.022248,1.051457 c -0.216046,-0.448603 -0.480679,-0.763709 -0.794841,-0.943433 -0.314637,-0.179251 -0.606629,-0.269351 -0.87645,-0.269351 -1.3472231,0 -2.0217777,0.889187 -2.0217777,2.6685 0,0.808526 0.1707629,1.454777 0.5118107,1.940173 0.341524,0.485396 0.844845,0.728332 1.509967,0.728332 0.880695,0 1.50053,-0.431622 1.860449,-1.293922 l 1.85951,0.943438 c -0.395301,0.737289 -0.943435,1.316559 -1.644407,1.738746 -0.700026,0.422655 -1.47317,0.633515 -2.318015,0.633515 -1.3476953,0 -2.4354738,-0.412753 -3.2619218,-1.240143 -0.8264474,-0.826446 -1.2396714,-1.976494 -1.2396714,-3.449667 0,-1.437791 0.4179415,-2.578401 1.2533513,-3.423248 0.8354103,-0.844371 1.8911135,-1.26703 3.1675779,-1.26703 1.869414,-9.43e-4 3.207674,0.726917 4.016666,2.182633 z"
     id="path844"
     style="stroke-width:0.471702" />
</svg>
