<?xml version="1.0" encoding="UTF-8" standalone="no"?>
<svg
   width="100"
   height="40"
   viewBox="0 0 100 40"
   version="1.1"
   id="svg8"
   inkscape:version="1.3 (0e150ed6c4, 2023-07-21)"
   sodipodi:docname="cc-by-sa.svg"
   xmlns:inkscape="http://www.inkscape.org/namespaces/inkscape"
   xmlns:sodipodi="http://sodipodi.sourceforge.net/DTD/sodipodi-0.dtd"
   xmlns="http://www.w3.org/2000/svg"
   xmlns:svg="http://www.w3.org/2000/svg"
   xmlns:rdf="http://www.w3.org/1999/02/22-rdf-syntax-ns#"
   xmlns:cc="http://creativecommons.org/ns#"
   xmlns:dc="http://purl.org/dc/elements/1.1/">
  <defs
     id="defs2" />
  <sodipodi:namedview
     id="base"
     pagecolor="#ffffff"
     bordercolor="#666666"
     borderopacity="1.0"
     inkscape:pageopacity="0.0"
     inkscape:pageshadow="2"
     inkscape:zoom="4.0486371"
     inkscape:cx="24.452673"
     inkscape:cy="45.817888"
     inkscape:document-units="px"
     inkscape:current-layer="svg8"
     inkscape:document-rotation="0"
     showgrid="false"
     fit-margin-top="0"
     fit-margin-left="0"
     fit-margin-right="0"
     fit-margin-bottom="0"
     inkscape:window-width="1920"
     inkscape:window-height="1015"
     inkscape:window-x="0"
     inkscape:window-y="37"
     inkscape:window-maximized="1"
     inkscape:pagecheckerboard="0"
     units="px"
     inkscape:showpageshadow="2"
     inkscape:deskcolor="#d1d1d1" />
  <metadata
     id="metadata5">
    <rdf:RDF>
      <cc:Work
         rdf:about="">
        <dc:format>image/svg+xml</dc:format>
        <dc:type
           rdf:resource="http://purl.org/dc/dcmitype/StillImage" />
      </cc:Work>
    </rdf:RDF>
  </metadata>
  <path
     d="m 48.008438,12.777632 c 0,-1.343489 0.663258,-2.016126 1.991115,-2.016126 1.327856,0 1.990667,0.671745 1.990667,2.016126 0,1.326963 -0.663704,1.990668 -1.990667,1.990668 -1.326963,0 -1.991115,-0.663705 -1.991115,-1.990668 z"
     id="path839"
     style="stroke-width:0.446638" />
  <path
     d="m 53.853596,16.452574 v 5.844264 h -1.63291 v 6.941657 h -4.441373 v -6.94121 h -1.632911 v -5.844711 c 0,-0.255477 0.08933,-0.472097 0.267536,-0.650753 0.179102,-0.178208 0.396169,-0.267982 0.650752,-0.267982 h 5.870616 c 0.238059,0 0.451106,0.08933 0.6378,0.267982 0.186248,0.178656 0.280489,0.395723 0.28049,0.650753 z"
     id="path837"
     style="stroke-width:0.446638" />
  <path
     id="path4-3"
     d="m 49.974702,5.7075681 c -3.947838,0 -7.29882,1.3777958 -10.055473,4.1348959 C 37.112107,12.700951 35.707566,16.087 35.707566,20 c 0,3.913447 1.40454,7.273201 4.211663,10.080771 2.841068,2.80757 6.192495,4.211661 10.055473,4.211661 3.929971,0 7.340998,-1.421169 10.233429,-4.263129 C 62.930839,27.358405 64.29243,24.015727 64.29243,20 c 0,-3.998308 -1.387464,-7.383911 -4.160195,-10.157536 C 57.375582,7.0858108 53.989089,5.7075681 49.974702,5.7075681 Z m 0.05059,2.5777675 c 3.232768,0 5.989274,1.1399334 8.268917,3.4195754 2.279196,2.280536 3.419576,5.044475 3.419576,8.294217 0,3.301105 -1.122836,6.032188 -3.36898,8.193025 -2.36495,2.331899 -5.138982,3.496342 -8.320385,3.496342 -3.198825,0 -5.954888,-1.156563 -8.268923,-3.471044 -2.313587,-2.312695 -3.470171,-5.051698 -3.470171,-8.216579 0,-3.147461 1.164892,-5.912719 3.496345,-8.295088 2.246145,-2.279643 4.993878,-3.4204484 8.243621,-3.4204484 z"
     style="stroke-width:0.446638" />
  <path
     d="m 76.797666,17.817948 c 0.272004,-1.752609 0.977693,-3.109497 2.117961,-4.070663 1.13982,-0.961167 2.526184,-1.44175 4.159988,-1.44175 2.245252,0 4.032699,0.723555 5.359662,2.168877 1.326963,1.446215 1.990668,3.301105 1.990668,5.563776 0,2.195228 -0.689164,4.019747 -2.066596,5.474001 -1.37922,1.454255 -3.164881,2.182276 -5.360556,2.182276 -1.616384,0 -3.011682,-0.484603 -4.185447,-1.454702 -1.174214,-0.970098 -1.879902,-2.347978 -2.118407,-4.134532 h 3.59946 c 0.08486,1.735637 1.131334,2.603456 3.13942,2.603456 1.00315,0 1.812013,-0.434133 2.424354,-1.301505 0.613235,-0.867372 0.919629,-2.025059 0.919629,-3.470827 0,-1.514552 -0.280936,-2.666879 -0.841914,-3.458322 -0.561872,-0.790997 -1.369394,-1.186719 -2.425247,-1.186719 -1.906253,0 -2.977739,0.841913 -3.215796,2.526187 h 1.046473 l -2.83258,2.833029 -2.833028,-2.833029 z"
     id="path837-7"
     style="stroke-width:0.446638" />
  <path
     id="path4-5"
     d="m 83.025529,5.7075681 c -3.930417,0 -7.282295,1.3869937 -10.05547,4.1610649 -2.807123,2.858487 -4.211662,6.236212 -4.211662,10.132239 0,3.913894 1.404539,7.272776 4.211662,10.079899 2.841067,2.80757 6.192495,4.211661 10.05547,4.211661 3.946498,0 7.358419,-1.412417 10.233431,-4.236958 2.722708,-2.70529 4.084299,-6.056272 4.084299,-10.055474 0,-3.998308 -1.387465,-7.375586 -4.160196,-10.1322391 C 90.408991,7.0941366 87.023391,5.7075681 83.025529,5.7075681 Z m 0.0506,2.5777675 c 3.249294,0 6.0058,1.1477914 8.268917,3.4457454 2.279197,2.245698 3.419577,5.002652 3.419577,8.268919 0,3.284133 -1.122837,6.015216 -3.368981,8.193026 -2.364952,2.331006 -5.138982,3.496341 -8.320385,3.496341 -3.198823,0 -5.954885,-1.156563 -8.268921,-3.471044 C 72.492744,25.921261 71.336161,23.182299 71.336161,20 c 0,-3.147014 1.164891,-5.903521 3.496344,-8.268919 2.246146,-2.297062 4.993878,-3.4457454 8.243618,-3.4457454 z"
     style="stroke-width:0.446638" />
  <path
     id="path4"
     d="m 16.923439,5.707569 c -3.964485,0 -7.3081372,1.387505 -10.0304815,4.16032 -1.3779222,1.378369 -2.4287352,2.939566 -3.1518644,4.683742 -0.7231292,1.744177 -1.0843526,3.559914 -1.0843526,5.448806 0,1.905865 0.3574962,3.717877 1.0721392,5.436596 0.7146444,1.718714 1.7566842,3.262836 3.126566,4.63227 1.3698819,1.369435 2.9185982,2.416096 4.6453563,3.13878 1.727204,0.724023 3.535064,1.084348 5.423508,1.084348 1.888446,0 3.718002,-0.364947 5.487191,-1.096564 1.770087,-0.731616 3.352531,-1.787899 4.747423,-3.165819 1.343533,-1.31003 2.360614,-2.820419 3.0498,-4.530204 0.688287,-1.70934 1.032883,-3.542622 1.032883,-5.499407 0,-1.939809 -0.349616,-3.773073 -1.046841,-5.500277 C 29.497095,12.773404 28.476284,11.237164 27.132755,9.893188 24.325548,7.1029519 20.921421,5.707569 16.923439,5.707569 Z m 0.05147,2.5778471 c 3.232867,0 5.997743,1.1487199 8.296212,3.4458509 1.105019,1.106804 1.947112,2.365909 2.524633,3.778224 0.578414,1.412312 0.868006,2.909332 0.868006,4.491817 0,3.284683 -1.114117,6.015399 -3.342911,8.19328 -1.157722,1.12288 -2.453859,1.981561 -3.891633,2.577845 -1.43956,0.595834 -2.923186,0.892428 -4.454307,0.892428 -1.548543,0 -3.029356,-0.293316 -4.441223,-0.880217 C 11.120479,30.19685 9.8539198,29.346942 8.7310371,28.232096 7.6077069,27.117702 6.7444257,25.850267 6.1401055,24.428577 5.5353382,23.008668 5.233716,21.532881 5.233716,20.001308 c 0,-1.548541 0.3016222,-3.033506 0.9063895,-4.454303 C 6.7439799,14.126202 7.6077069,12.846272 8.7310371,11.705969 10.960277,9.426255 13.708096,8.2854161 16.97491,8.2854161 Z"
     style="stroke-width:0.446638" />
  <path
     d="m 25.039821,17.627376 -1.888892,0.995588 c -0.204123,-0.424767 -0.455585,-0.72313 -0.753055,-0.893304 -0.298363,-0.169727 -0.583775,-0.255039 -0.854893,-0.255039 -1.276086,0 -1.914797,0.84194 -1.914797,2.526709 0,0.765566 0.16213,1.377478 0.485062,1.837083 0.322929,0.459604 0.799063,0.689632 1.429735,0.689632 0.833008,0 1.420355,-0.408688 1.760256,-1.22517 l 1.786608,0.893309 c -0.390818,0.698113 -0.918763,1.246604 -1.581597,1.646358 -0.663722,0.400197 -1.386852,0.599853 -2.16939,0.599853 -1.2935,0 -2.326607,-0.390821 -3.100211,-1.174248 -0.775387,-0.782533 -1.162185,-1.871473 -1.162185,-3.26637 0,-1.361394 0.395284,-2.441398 1.187201,-3.241354 0.790572,-0.799506 1.790181,-1.199707 2.998374,-1.199707 1.769635,-8.93e-4 3.029642,0.688293 3.777784,2.06666 z"
     id="path846"
     style="stroke-width:0.446638" />
  <path
     d="m 16.79596,17.627376 -1.914796,0.995588 c -0.204567,-0.424767 -0.455139,-0.72313 -0.752608,-0.893304 -0.297919,-0.169727 -0.574396,-0.255039 -0.82988,-0.255039 -1.275639,0 -1.914351,0.84194 -1.914351,2.526709 0,0.765566 0.161689,1.377478 0.484616,1.837083 0.323377,0.459604 0.799954,0.689632 1.429735,0.689632 0.8339,0 1.4208,-0.408688 1.761595,-1.22517 l 1.760705,0.893309 c -0.374297,0.698113 -0.893306,1.246604 -1.557032,1.646358 -0.66283,0.400197 -1.394893,0.599853 -2.194848,0.599853 -1.276086,0 -2.306065,-0.390821 -3.0886002,-1.174248 -0.7825343,-0.782533 -1.1738017,-1.871473 -1.1738017,-3.26637 0,-1.361394 0.3957343,-2.441398 1.1867547,-3.241354 0.7910212,-0.799506 1.7906292,-1.199707 2.9992702,-1.199707 1.770083,-8.93e-4 3.037234,0.688293 3.803241,2.06666 z"
     id="path844"
     style="stroke-width:0.446638" />
</svg>
