<?xml version="1.0" encoding="UTF-8" standalone="no"?>
<!-- Generator: Adobe Illustrator 19.0.0, SVG Export Plug-In . SVG Version: 6.00 Build 0)  -->

<svg
   version="1.1"
   id="Layer_1"
   x="0px"
   y="0px"
   viewBox="0 0 100 100"
   xml:space="preserve"
   sodipodi:docname="icon-articles.svg"
   width="100"
   height="100"
   inkscape:version="1.1.1 (3bf5ae0d25, 2021-09-20, custom)"
   xmlns:inkscape="http://www.inkscape.org/namespaces/inkscape"
   xmlns:sodipodi="http://sodipodi.sourceforge.net/DTD/sodipodi-0.dtd"
   xmlns="http://www.w3.org/2000/svg"
   xmlns:svg="http://www.w3.org/2000/svg"><defs
   id="defs81" /><sodipodi:namedview
   id="namedview79"
   pagecolor="#ffffff"
   bordercolor="#666666"
   borderopacity="1.0"
   inkscape:pageshadow="2"
   inkscape:pageopacity="0.0"
   inkscape:pagecheckerboard="0"
   showgrid="false"
   inkscape:zoom="10.100958"
   inkscape:cx="53.757279"
   inkscape:cy="56.826295"
   inkscape:window-width="1920"
   inkscape:window-height="1019"
   inkscape:window-x="0"
   inkscape:window-y="33"
   inkscape:window-maximized="1"
   inkscape:current-layer="Layer_1" />





















<g
   id="g48"
   transform="matrix(0.19762846,0,0,0.19762846,-140.17831,-7.1525574e-7)">
</g>
<g
   id="g50"
   transform="matrix(0.19762846,0,0,0.19762846,-140.17831,-7.1525574e-7)">
</g>
<g
   id="g52"
   transform="matrix(0.19762846,0,0,0.19762846,-140.17831,-7.1525574e-7)">
</g>
<g
   id="g54"
   transform="matrix(0.19762846,0,0,0.19762846,-140.17831,-7.1525574e-7)">
</g>
<g
   id="g56"
   transform="matrix(0.19762846,0,0,0.19762846,-140.17831,-7.1525574e-7)">
</g>
<g
   id="g58"
   transform="matrix(0.19762846,0,0,0.19762846,-140.17831,-7.1525574e-7)">
</g>
<g
   id="g60"
   transform="matrix(0.19762846,0,0,0.19762846,-140.17831,-7.1525574e-7)">
</g>
<g
   id="g62"
   transform="matrix(0.19762846,0,0,0.19762846,-140.17831,-7.1525574e-7)">
</g>
<g
   id="g64"
   transform="matrix(0.19762846,0,0,0.19762846,-140.17831,-7.1525574e-7)">
</g>
<g
   id="g66"
   transform="matrix(0.19762846,0,0,0.19762846,-140.17831,-7.1525574e-7)">
</g>
<g
   id="g68"
   transform="matrix(0.19762846,0,0,0.19762846,-140.17831,-7.1525574e-7)">
</g>
<g
   id="g70"
   transform="matrix(0.19762846,0,0,0.19762846,-140.17831,-7.1525574e-7)">
</g>
<g
   id="g72"
   transform="matrix(0.19762846,0,0,0.19762846,-140.17831,-7.1525574e-7)">
</g>
<g
   id="g74"
   transform="matrix(0.19762846,0,0,0.19762846,-140.17831,-7.1525574e-7)">
</g>
<g
   id="g76"
   transform="matrix(0.19762846,0,0,0.19762846,-140.17831,-7.1525574e-7)">
</g>
<path
   id="rect920-3-6"
   style="fill:#f6f8f8;stroke:#000000;stroke-width:2.96443;fill-opacity:1"
   d="M 28.992096,1.4822128 H 90.770752 V 82.312253 H 28.992096 Z" /><path
   id="rect920-3"
   style="fill:#f6f8f8;stroke:#000000;stroke-width:2.96443;fill-opacity:1"
   d="m 19.110672,8.992094 h 61.778656 v 80.83004 H 19.110672 Z" /><path
   id="rect920"
   style="fill:#f6f8f8;stroke:#000000;stroke-width:2.96443;fill-opacity:1"
   d="m 9.229248,17.687748 h 61.778656 v 80.83004 H 9.229248 Z" /><path
   id="rect1194"
   style="fill:#1d8fc9;stroke:#000000;stroke-width:1;stroke-miterlimit:4;stroke-dasharray:none;fill-opacity:1"
   d="M 18.149242,74.65544 H 33.375246 V 90.194215 H 18.149242 Z" /><path
   id="rect1194-7"
   style="fill:#1d8fc9;stroke:#000000;stroke-width:1;stroke-miterlimit:4;stroke-dasharray:none;fill-opacity:1"
   d="M 18.142653,24.858688 H 62.094499 V 35.908926 H 18.142653 Z" /><path
   id="rect1338"
   style="fill:#00080c;stroke-width:1.56766"
   d="m 17.618576,41.908926 h 45 v 2 h -45 z" /><path
   id="rect1338-5"
   style="fill:#00080c;stroke-width:1.56766"
   d="m 17.618576,49.908926 h 45 v 2 h -45 z" /><path
   id="rect1338-5-3"
   style="fill:#00080c;stroke-width:1.56766"
   d="m 17.618576,57.908926 h 45 v 2 h -45 z" /><path
   id="rect1338-5-3-5"
   style="fill:#00080c;stroke-width:1.56766"
   d="m 17.618576,65.908926 h 45 v 2 h -45 z" /><path
   id="rect1338-5-3-5-6"
   style="fill:#00080c;stroke-width:1.06543"
   d="m 41.833105,73.424828 h 20.785471 v 2 H 41.833105 Z" /><path
   id="rect1338-5-3-5-6-2"
   style="fill:#00080c;stroke-width:1.06543"
   d="m 41.833105,81.424828 h 20.785471 v 2 H 41.833105 Z" /><path
   id="rect1338-5-3-5-6-2-9"
   style="fill:#00080c;stroke-width:1.06543"
   d="m 41.833105,89.424828 h 20.785471 v 2 H 41.833105 Z" /></svg>
