<?xml version="1.0" encoding="UTF-8" standalone="no"?>
<!-- Created with Inkscape (http://www.inkscape.org/) -->

<svg
   width="100"
   height="100"
   viewBox="0 0 100 100"
   version="1.1"
   id="svg5"
   inkscape:version="1.1.1 (3bf5ae0d25, 2021-09-20, custom)"
   sodipodi:docname="icon-projects.svg"
   xmlns:inkscape="http://www.inkscape.org/namespaces/inkscape"
   xmlns:sodipodi="http://sodipodi.sourceforge.net/DTD/sodipodi-0.dtd"
   xmlns="http://www.w3.org/2000/svg"
   xmlns:svg="http://www.w3.org/2000/svg">
  <sodipodi:namedview
     id="namedview7"
     pagecolor="#ffffff"
     bordercolor="#666666"
     borderopacity="1.0"
     inkscape:pageshadow="2"
     inkscape:pageopacity="0.0"
     inkscape:pagecheckerboard="0"
     inkscape:document-units="px"
     showgrid="false"
     inkscape:zoom="2.9141965"
     inkscape:cx="54.217345"
     inkscape:cy="6.1766596"
     inkscape:window-width="1920"
     inkscape:window-height="1019"
     inkscape:window-x="0"
     inkscape:window-y="33"
     inkscape:window-maximized="1"
     inkscape:current-layer="svg5" />
  <defs
     id="defs2" />
  <path
     id="rect846"
     style="fill:#1d8fc9;stroke:#000000;stroke-width:2.04131;stroke-linecap:round;stroke-linejoin:round"
     d="M 1.0206528,15.041147 H 98.979347 V 68.626894 H 1.0206528 Z" />
  <path
     id="rect846-6"
     style="fill:#f6f8f8;stroke:#000000;stroke-width:2.05443;stroke-linecap:round;stroke-linejoin:round"
     d="M 6.2503581,19.91102 H 93.563283 V 62.7106 H 6.2503581 Z" />
  <path
     id="rect1148"
     style="fill:#1d8fc9;fill-opacity:1;stroke:#000000;stroke-width:3;stroke-linecap:round;stroke-linejoin:round;stroke-miterlimit:4;stroke-dasharray:none;stroke-opacity:1"
     d="m 41.953125,69.147549 c 3.727668,2.111808 3.500227,7.673464 0,13.376953 H 50 58.046875 c -3.500227,-5.703489 -3.727669,-11.265145 0,-13.376953 H 50 Z" />
  <path
     id="rect1148-3"
     style="fill:#1d8fc9;stroke:#000000;stroke-width:1.5;stroke-linecap:round;stroke-linejoin:round"
     d="m 34.720269,82.590942 h 30.559462 c 1.126665,0 2.033692,0.356678 2.033692,0.799727 v 1.03911 c 0,0.443048 -0.907027,0.799727 -2.033692,0.799727 H 34.720269 c -1.126665,0 -2.033692,-0.356679 -2.033692,-0.799727 v -1.03911 c 0,-0.443049 0.907027,-0.799727 2.033692,-0.799727 z" />
  <path
     id="rect847"
     style="stroke-width:1.70417;stroke-linecap:round;stroke-linejoin:round"
     d="m 13.259277,26.594948 h 29.132596 v 2.567314 H 13.259277 Z" />
  <path
     id="rect847-7"
     style="stroke-width:1.52107;stroke-linecap:round;stroke-linejoin:round"
     d="M 13.259277,34.29689 H 36.46805 v 2.567315 H 13.259277 Z" />
  <path
     id="rect847-7-5"
     style="stroke-width:1.62802;stroke-linecap:round;stroke-linejoin:round"
     d="m 13.259277,41.998833 h 26.586812 v 2.567314 H 13.259277 Z" />
  <path
     id="rect847-7-5-3"
     style="stroke-width:0.414169;stroke-linecap:round;stroke-linejoin:round"
     d="m 18.443194,58.09095 h 4.417548 v 1 h -4.417548 z" />
  <path
     d="m 77.586096,40.075326 v -1.680914 l 6.160884,-2.39919 -6.160884,-2.406595 v -1.68832 l 7.604842,2.89532 v 2.38438 z"
     style="font-weight:bold;font-family:'Liberation Mono';-inkscape-font-specification:'Liberation Mono Bold';stroke-width:0.379131"
     id="path27058" />
  <path
     d="m 68.396606,41.149038 6.07943,-11.136982 h 1.688318 l -6.049809,11.136982 z"
     style="font-weight:bold;font-family:'Liberation Mono';-inkscape-font-specification:'Liberation Mono Bold';stroke-width:0.379131"
     id="path27056" />
  <path
     d="m 59.384832,37.180007 v -2.38438 l 7.604841,-2.89532 v 1.68832 l -6.168289,2.406595 6.168289,2.399191 v 1.680915 z"
     style="font-weight:bold;font-family:'Liberation Mono';-inkscape-font-specification:'Liberation Mono Bold';stroke-width:0.379131"
     id="path27054" />
  <path
     id="rect27101"
     style="stroke-width:1.98046;stroke-linecap:round;stroke-linejoin:round"
     d="M 7.1079167,50.036518 H 92.892083 v 0.813634 H 7.1079167 Z" />
  <path
     d="m 17.042456,57.120762 q 0,0.632276 -0.426175,0.9816 -0.422681,0.345831 -1.254074,0.37727 v 0.611318 h -0.380763 v -0.600838 q -0.751047,-0.02795 -1.170236,-0.352818 -0.419189,-0.328364 -0.551931,-1.002559 l 0.89427,-0.164183 q 0.06637,0.394736 0.261992,0.579878 0.199115,0.181648 0.565905,0.216581 v -1.365857 q -0.01048,-0.007 -0.0524,-0.01398 -0.04192,-0.01048 -0.05589,-0.01048 -0.562412,-0.129244 -0.848857,-0.303907 -0.286445,-0.178155 -0.443642,-0.447135 -0.153701,-0.272472 -0.153701,-0.663715 0,-0.579878 0.394736,-0.894269 0.394736,-0.317886 1.159755,-0.349325 V 53.25025 h 0.380763 v 0.468095 q 0.681183,0.02445 1.047973,0.303911 0.36679,0.275967 0.527479,0.918723 l -0.92222,0.136236 Q 15.910643,54.476378 15.362204,54.40302 v 1.22962 l 0.03843,0.007 q 0.101305,0 0.614811,0.167676 0.517,0.167676 0.772007,0.496041 0.255006,0.324871 0.255006,0.817418 z m -2.061012,-2.731715 q -0.639264,0.04891 -0.639264,0.558918 0,0.157196 0.0524,0.2585 0.0524,0.09781 0.157197,0.167676 0.104797,0.06986 0.429668,0.174662 z m 1.152769,2.745688 q 0,-0.174662 -0.06288,-0.282954 -0.06288,-0.111783 -0.185141,-0.181648 -0.118771,-0.06986 -0.523987,-0.185142 v 1.28202 q 0.772006,-0.0524 0.772006,-0.632276 z"
     style="font-weight:bold;font-family:'Liberation Mono';-inkscape-font-specification:'Liberation Mono Bold';stroke-width:0.178854"
     id="path37543" />
</svg>
