<?xml version="1.0" encoding="UTF-8" standalone="no"?>
<svg
   viewbox="0 0 40 40"
   style="stroke: #000;  stroke-width: 5;  stroke-linecap: round;"
   version="1.1"
   id="svg4"
   sodipodi:docname="icon-close.svg"
   width="100"
   height="100"
   viewBox="0 0 100.00005 100.00005"
   inkscape:version="1.1.1 (3bf5ae0d25, 2021-09-20, custom)"
   xmlns:inkscape="http://www.inkscape.org/namespaces/inkscape"
   xmlns:sodipodi="http://sodipodi.sourceforge.net/DTD/sodipodi-0.dtd"
   xmlns="http://www.w3.org/2000/svg"
   xmlns:svg="http://www.w3.org/2000/svg"
   xmlns:rdf="http://www.w3.org/1999/02/22-rdf-syntax-ns#"
   xmlns:cc="http://creativecommons.org/ns#"
   xmlns:dc="http://purl.org/dc/elements/1.1/">
  <metadata
     id="metadata10">
    <rdf:RDF>
      <cc:Work
         rdf:about="">
        <dc:format>image/svg+xml</dc:format>
        <dc:type
           rdf:resource="http://purl.org/dc/dcmitype/StillImage" />
      </cc:Work>
    </rdf:RDF>
  </metadata>
  <defs
     id="defs8" />
  <sodipodi:namedview
     id="namedview6"
     inkscape:zoom="3.0499873"
     inkscape:cx="13.442679"
     inkscape:cy="79.672463"
     inkscape:window-width="1920"
     inkscape:window-height="1019"
     inkscape:window-x="0"
     inkscape:window-y="33"
     inkscape:window-maximized="1"
     inkscape:current-layer="svg4"
     pagecolor="#ffffff"
     bordercolor="#666666"
     borderopacity="1.0"
     inkscape:pageshadow="2"
     inkscape:pageopacity="0.0"
     inkscape:pagecheckerboard="0"
     showgrid="false" />
  <path
     style="color:#000000;fill:#1d8fc9;stroke:#010304;stroke-width:3;stroke-linecap:butt;stroke-miterlimit:4;stroke-dasharray:none;stroke-opacity:1"
     d="m 9.1489631,1.5 a 7.659573,7.6587251 0 0 0 -5.4155577,2.2437671 7.659573,7.6587251 0 0 0 0,10.8299149 L 39.168904,50.005259 3.7334054,85.436835 a 7.659573,7.6587251 0 0 0 0,10.829915 7.659573,7.6587251 0 0 0 10.8311146,0 L 50.000019,60.835175 85.435518,96.26675 a 7.659573,7.6587251 0 0 0 10.831115,0 7.659573,7.6587251 0 0 0 0,-10.829915 L 60.831134,50.005259 96.266633,14.573682 a 7.659573,7.6587251 0 0 0 0,-10.8299149 7.659573,7.6587251 0 0 0 -10.831115,0 L 50.000019,39.175343 14.56452,3.7437671 A 7.659573,7.6587251 0 0 0 9.1489631,1.5 Z"
     id="path2" />
</svg>
