<?xml version="1.0" encoding="UTF-8" standalone="no"?>
<svg
   sodipodi:docname="icon-close.svg"
   width="100"
   height="100"
   viewBox="0 0 100 100"
   inkscape:version="1.1.1 (3bf5ae0d25, 2021-09-20, custom)"
   version="1.1"
   id="svg825"
   xmlns:inkscape="http://www.inkscape.org/namespaces/inkscape"
   xmlns:sodipodi="http://sodipodi.sourceforge.net/DTD/sodipodi-0.dtd"
   xmlns="http://www.w3.org/2000/svg"
   xmlns:svg="http://www.w3.org/2000/svg">
  <defs
     id="defs8" />
  <sodipodi:namedview
     id="namedview6"
     inkscape:zoom="2.729418"
     inkscape:cx="-18.318924"
     inkscape:cy="74.374829"
     inkscape:window-width="1920"
     inkscape:window-height="1019"
     inkscape:window-x="0"
     inkscape:window-y="33"
     inkscape:window-maximized="1"
     pagecolor="#ffffff"
     bordercolor="#666666"
     borderopacity="1.0"
     inkscape:pageshadow="2"
     inkscape:pageopacity="0.0"
     inkscape:pagecheckerboard="0"
     showgrid="false"
     inkscape:current-layer="svg825" />
  <path
     id="rect843"
     style="fill:#1d8fc9;stroke:#000000;stroke-width:3;stroke-linecap:round;stroke-linejoin:round;stroke-miterlimit:4;stroke-dasharray:none"
     d="m 3.6465459,3.6465457 c 2.8785908,-2.87859094 7.5134341,-2.87859094 10.3920251,0 L 96.353457,85.96143 c 2.878587,2.878591 2.878587,7.513434 0,10.392025 -2.878597,2.878591 -7.513432,2.878591 -10.392029,0 L 3.6465449,14.038571 C 0.76795398,11.15998 0.76795398,6.5251366 3.6465459,3.6465457 Z" />
  <path
     id="rect843-3"
     style="fill:#1d8fc9;stroke:#000000;stroke-width:3;stroke-linecap:round;stroke-linejoin:round;stroke-miterlimit:4;stroke-dasharray:none"
     d="m 96.353453,3.6465462 c 2.878592,2.8785909 2.878592,7.5134348 0,10.3920258 L 14.03857,96.353457 c -2.878589,2.878587 -7.5134339,2.878587 -10.3920248,0 -2.87859087,-2.878597 -2.87858988,-7.513442 -10e-7,-10.392029 L 85.961428,3.6465462 c 2.878591,-2.87859099 7.513434,-2.87859099 10.392025,0 z" />
</svg>
