<?xml version="1.0" encoding="UTF-8" standalone="no"?>
<svg
   version="1.1"
   x="0px"
   y="0px"
   width="100"
   height="100"
   viewBox="0 0 99.999999 99.999999"
   xml:space="preserve"
   sodipodi:docname="icon-search.svg"
   id="svg3545"
   inkscape:version="1.1.1 (3bf5ae0d25, 2021-09-20, custom)"
   xmlns:inkscape="http://www.inkscape.org/namespaces/inkscape"
   xmlns:sodipodi="http://sodipodi.sourceforge.net/DTD/sodipodi-0.dtd"
   xmlns="http://www.w3.org/2000/svg"
   xmlns:svg="http://www.w3.org/2000/svg"><defs
     id="defs823" /><sodipodi:namedview
     id="namedview43"
     pagecolor="#ffffff"
     bordercolor="#666666"
     borderopacity="1.0"
     inkscape:pageshadow="2"
     inkscape:pageopacity="0.0"
     inkscape:pagecheckerboard="0"
     inkscape:window-width="1920"
     inkscape:window-height="1019"
     inkscape:window-x="0"
     inkscape:window-y="33"
     inkscape:window-maximized="1"
     inkscape:zoom="2.3129303"
     inkscape:cx="-62.258686"
     inkscape:cy="27.670527"
     inkscape:current-layer="svg3545"
     showgrid="false" /><path
     id="rect1408"
     style="fill:#14578a;fill-opacity:1;stroke:#000000;stroke-width:2"
     d="m 45.39268,48.064692 5.611922,4.307881 -10.292886,13.414321 -5.611923,-4.307882 z" /><path
     id="path1246"
     style="fill:#1d8fc9;stroke:#000000;stroke-width:2"
     d="M 90.904041,28.730105 A 27.725691,27.730085 0 0 1 63.17835,56.46019 27.725691,27.730085 0 0 1 35.45266,28.730105 27.725691,27.730085 0 0 1 63.17835,1.00002 27.725691,27.730085 0 0 1 90.904041,28.730105 Z" /><path
     id="path1246-5"
     style="fill:#e4ffff;fill-opacity:1;stroke:#000000;stroke-width:1.5"
     d="M 82.438984,28.730105 A 19.260633,19.263685 0 0 1 63.17835,47.99379 19.260633,19.263685 0 0 1 43.917716,28.730105 19.260633,19.263685 0 0 1 63.17835,9.4664203 19.260633,19.263685 0 0 1 82.438984,28.730105 Z" /><path
     id="rect1408-3"
     style="fill:#1d8fc9;stroke:#000000;stroke-width:2;stroke-linejoin:round"
     d="m 35.826055,60.434903 5.75193,4.415356 c 0.998045,0.766128 1.184879,2.186554 0.418913,3.184809 L 18.914717,98.117182 c -0.765969,0.998256 -2.186094,1.185131 -3.18414,0.418997 L 9.9786472,94.120827 C 8.9806032,93.354698 8.7937692,91.934273 9.5597392,90.936014 L 32.641919,60.853903 c 0.765967,-0.998254 2.186091,-1.185129 3.184136,-0.419 z" /></svg>
