<?xml version="1.0" encoding="UTF-8" standalone="no"?>
<!-- Generator: Adobe Illustrator 16.0.0, SVG Export Plug-In . SVG Version: 6.00 Build 0)  -->

<svg
   version="1.1"
   x="0px"
   y="0px"
   width="100"
   height="100"
   viewBox="0 0 99.999999 99.999999"
   xml:space="preserve"
   sodipodi:docname="icon-search.svg"
   id="svg3545"
   inkscape:version="1.1.1 (3bf5ae0d25, 2021-09-20, custom)"
   xmlns:inkscape="http://www.inkscape.org/namespaces/inkscape"
   xmlns:sodipodi="http://sodipodi.sourceforge.net/DTD/sodipodi-0.dtd"
   xmlns="http://www.w3.org/2000/svg"
   xmlns:svg="http://www.w3.org/2000/svg"><defs
     id="defs823" /><sodipodi:namedview
     id="namedview43"
     pagecolor="#ffffff"
     bordercolor="#666666"
     borderopacity="1.0"
     inkscape:pageshadow="2"
     inkscape:pageopacity="0.0"
     inkscape:pagecheckerboard="0"
     inkscape:window-width="1920"
     inkscape:window-height="1019"
     inkscape:window-x="0"
     inkscape:window-y="33"
     inkscape:window-maximized="1"
     inkscape:zoom="4.5358955"
     inkscape:cx="18.959872"
     inkscape:cy="47.179217"
     inkscape:current-layer="svg3545"
     showgrid="false" /><path
     id="rect1408"
     style="fill:#14578a;stroke:#000000;stroke-width:2;fill-opacity:1"
     transform="matrix(0.71477987,0.69934951,-0.69963223,0.71450315,0,0)"
     d="m 67.137863,3.0622735 h 7.476434 V 20.929606 h -7.476434 z" /><path
     id="path1246"
     style="fill:#1d8fc9;stroke:#000000;stroke-width:2"
     transform="matrix(0.96592978,0.2588043,-0.2588338,0.96592187,0,0)"
     d="M 103.36876,11.53057 A 29.302338,29.300789 0 0 1 74.066422,40.831359 29.302338,29.300789 0 0 1 44.764084,11.53057 29.302338,29.300789 0 0 1 74.066422,-17.770219 29.302338,29.300789 0 0 1 103.36876,11.53057 Z" /><path
     id="path1246-5"
     style="fill:#e4ffff;stroke:#000000;stroke-width:1.5;fill-opacity:1"
     transform="matrix(0.96592978,0.2588043,-0.2588338,0.96592187,0,0)"
     d="M 94.422329,11.53057 A 20.355907,20.35483 0 0 1 74.066422,31.8854 20.355907,20.35483 0 0 1 53.710514,11.53057 20.355907,20.35483 0 0 1 74.066422,-8.8242598 20.355907,20.35483 0 0 1 94.422329,11.53057 Z" /><path
     id="rect1408-3"
     style="fill:#1d8fc9;stroke:#000000;stroke-width:2;stroke-linejoin:round"
     transform="matrix(0.71477987,0.69934951,-0.69963223,0.71450315,0,0)"
     d="m 67.075075,19.587082 h 7.662958 c 1.329636,0 2.400065,1.070429 2.400065,2.400064 v 40.068158 c 0,1.329635 -1.070429,2.400064 -2.400065,2.400064 h -7.662958 c -1.329636,0 -2.400064,-1.070429 -2.400064,-2.400064 V 21.987146 c 0,-1.329635 1.070428,-2.400064 2.400064,-2.400064 z" /></svg>
