<?xml version="1.0" encoding="UTF-8" standalone="no"?>
<!-- Generator: Adobe Illustrator 16.0.0, SVG Export Plug-In . SVG Version: 6.00 Build 0)  -->

<svg
   version="1.1"
   x="0px"
   y="0px"
   width="100"
   height="100"
   viewBox="0 0 99.999999 99.999999"
   xml:space="preserve"
   sodipodi:docname="icon-cv.svg"
   id="svg3545"
   inkscape:version="1.1.1 (3bf5ae0d25, 2021-09-20, custom)"
   xmlns:inkscape="http://www.inkscape.org/namespaces/inkscape"
   xmlns:sodipodi="http://sodipodi.sourceforge.net/DTD/sodipodi-0.dtd"
   xmlns="http://www.w3.org/2000/svg"
   xmlns:svg="http://www.w3.org/2000/svg"><defs
     id="defs823" /><sodipodi:namedview
     id="namedview43"
     pagecolor="#ffffff"
     bordercolor="#666666"
     borderopacity="1.0"
     inkscape:pageshadow="2"
     inkscape:pageopacity="0.0"
     inkscape:pagecheckerboard="0"
     inkscape:window-width="1920"
     inkscape:window-height="1019"
     inkscape:window-x="0"
     inkscape:window-y="33"
     inkscape:window-maximized="1"
     inkscape:zoom="1.0013052"
     inkscape:cx="-186.75625"
     inkscape:cy="19.973931"
     inkscape:current-layer="svg3545"
     showgrid="false" /><path
     id="rect4387"
     style="fill:#14578a;stroke:#000000;stroke-width:1.45341;stroke-linejoin:round"
     d="M 0.72670447,42.521138 H 77.467597 v 54.36591 H 0.72670447 Z" /><path
     id="rect6223"
     style="fill:#14578a;fill-opacity:1;stroke:#000000;stroke-width:0.968939;stroke-linejoin:round;stroke-miterlimit:4;stroke-dasharray:none"
     d="m 22.263958,32.886587 c 12.6493,-1.81512 21.613185,-1.732794 33.666442,0 l 1.683339,10.99517 h -5.891624 v -5.474639 c -7.949741,-2.722434 -16.311959,-2.706359 -25.249837,0 v 5.474639 h -5.891625 z"
     sodipodi:nodetypes="ccccccccc" /><path
     id="rect4387-1"
     style="fill:#1d8fc9;stroke:#000000;stroke-width:1.45341;stroke-linejoin:round"
     d="M 0.72670447,42.521138 H 77.467597 V 73.884317 H 0.72670447 Z" /><path
     id="rect3084"
     style="fill:#f6f8f8;stroke:#000000;stroke-width:2.21241;stroke-linejoin:round"
     d="M 44.217117,1.106205 H 98.921356 V 36.610421 H 44.217117 Z" /><path
     id="rect3401"
     style="fill:#1d8fc9;fill-opacity:1;stroke:#000000;stroke-width:1.28635;stroke-linejoin:round"
     d="m 84.933665,34.721635 h 6.957554 v 10.216808 l -3.478793,-3.767744 -3.478761,3.767744 z"
     sodipodi:nodetypes="cccccc" /><path
     id="path2524-93"
     style="fill:#1d8fc9;fill-opacity:1;stroke:#000000;stroke-width:1.23103;stroke-linejoin:round"
     d="m 93.326919,30.779639 a 4.914472,4.9188584 0 0 1 -4.914493,4.918858 4.914472,4.9188584 0 0 1 -4.914461,-4.918858 4.914472,4.9188584 0 0 1 4.914461,-4.918858 4.914472,4.9188584 0 0 1 4.914493,4.918858 z" /><path
     id="rect1515-3-7"
     style="stroke-width:1.10619;stroke-linejoin:round"
     d="m 54.53557,14.438273 h 34.067282 v 1.515453 H 54.53557 Z" /><path
     id="rect1515-3-7-3"
     style="stroke-width:1.10619;stroke-linejoin:round"
     d="m 54.53557,21.384062 h 34.067282 v 1.515453 H 54.53557 Z" /><path
     id="rect1515-3-7-3-6"
     style="stroke-width:1.10619;stroke-linejoin:round"
     d="m 54.53557,28.329927 h 17.563315 v 1.515454 H 54.53557 Z" /><path
     id="rect1515-3-7-3-1"
     style="stroke-width:1.10619;stroke-linejoin:round"
     d="m 63.495911,7.4924218 h 16.146628 v 1.515452 H 63.495911 Z" /><path
     id="rect5089"
     style="fill:#f6f8f8;fill-opacity:1;stroke:#000000;stroke-width:1.5;stroke-linejoin:round;stroke-miterlimit:4;stroke-dasharray:none"
     d="M 34.048314,65.601104 H 44.145988 V 80.557785 H 34.048314 Z" /></svg>
