<svg xmlns="http://www.w3.org/2000/svg" width="100" height="100" viewBox="0 0 100 100"><path fill="#1b1817" d="M0 0h100v100H0z"/><path d="M49.997 15C30.18 15 14.114 31.066 14.114 50.887c0 15.855 10.282 29.304 24.542 34.052 1.795.328 2.45-.78 2.45-1.732 0-.85-.031-3.108-.05-6.102-9.98 2.167-12.087-4.812-12.087-4.812-1.632-4.146-3.985-5.25-3.985-5.25-3.258-2.224.247-2.18.247-2.18 3.601.253 5.496 3.699 5.496 3.699 3.201 5.483 8.4 3.899 10.444 2.98.327-2.317 1.252-3.9 2.278-4.796-7.968-.905-16.346-3.985-16.346-17.736 0-3.917 1.399-7.12 3.695-9.63-.37-.907-1.602-4.555.35-9.497 0 0 3.014-.964 9.87 3.68 2.861-.798 5.932-1.195 8.983-1.208 3.047.013 6.118.41 8.984 1.207 6.851-4.643 9.858-3.679 9.858-3.679 1.959 4.942.727 8.59.357 9.498 2.3 2.509 3.69 5.712 3.69 9.629 0 13.786-8.391 16.82-16.386 17.708 1.29 1.108 2.437 3.297 2.437 6.646 0 4.796-.044 8.667-.044 9.843 0 .96.645 2.077 2.467 1.727 14.25-4.756 24.522-18.197 24.522-34.047C85.886 31.067 69.817 15 49.996 15" fill="#fff" fill-rule="evenodd"/></svg>