<svg
   width="50"
   height="50"
   viewBox="0 0 50 50"
   xmlns="http://www.w3.org/2000/svg">
  <path
     fill="#1b1817"
     d="M 0,0 H 50 V 50 H 0 Z"
     style="stroke-width:0.5" />
  <path
     d="M 24.9985,7.5 C 15.09,7.5 7.057,15.533 7.057,25.4435 c 0,7.9275 5.141,14.652 12.271,17.026 0.8975,0.164 1.225,-0.39 1.225,-0.866 0,-0.425 -0.0155,-1.554 -0.025,-3.051 -4.99,1.0835 -6.0435,-2.406 -6.0435,-2.406 -0.816,-2.073 -1.9925,-2.625 -1.9925,-2.625 -1.629,-1.112 0.1235,-1.09 0.1235,-1.09 1.8005,0.1265 2.748,1.8495 2.748,1.8495 1.6005,2.7415 4.2,1.9495 5.222,1.49 0.1635,-1.1585 0.626,-1.95 1.139,-2.398 -3.984,-0.4525 -8.173,-1.9925 -8.173,-8.868 0,-1.9585 0.6995,-3.56 1.8475,-4.815 -0.185,-0.4535 -0.801,-2.2775 0.175,-4.7485 0,0 1.507,-0.482 4.935,1.84 1.4305,-0.399 2.966,-0.5975 4.4915,-0.604 1.5235,0.0065 3.059,0.205 4.492,0.6035 3.4255,-2.3215 4.929,-1.8395 4.929,-1.8395 0.9795,2.471 0.3635,4.295 0.1785,4.749 1.15,1.2545 1.845,2.856 1.845,4.8145 0,6.893 -4.1955,8.41 -8.193,8.854 0.645,0.554 1.2185,1.6485 1.2185,3.323 0,2.398 -0.022,4.3335 -0.022,4.9215 0,0.48 0.3225,1.0385 1.2335,0.8635 C 37.807,40.089 42.943,33.3685 42.943,25.4435 42.943,15.5335 34.9085,7.5 24.998,7.5"
     fill="#ffffff"
     fill-rule="evenodd"
     style="stroke-width:0.5" />
</svg>
