<svg
   width="50"
   height="50"
   viewBox="0 0 50 50"
   xmlns="http://www.w3.org/2000/svg">
  <path
     fill="#cccccc"
     d="M 0,0 H 50 V 50 H 0 Z"
     style="stroke-width:0.5" />
  <path
     d="M 24.9985,42.5 32,20.966 H 18.008 Z"
     fill="#e24329"
     style="stroke-width:0.5" />
  <path
     d="m 8.2025,20.9665 -2.1315,6.542 a 1.45,1.45 0 0 0 0.5245,1.62 L 24.999,42.5 Z"
     fill="#fca326"
     style="stroke-width:0.5" />
  <path
     d="m 8.2025,20.9665 h 9.8055 l -4.22,-12.969 c -0.216,-0.6635 -1.157,-0.6635 -1.381,0 z"
     fill="#e24329"
     style="stroke-width:0.5" />
  <path
     d="m 41.805,20.9665 2.124,6.542 a 1.45,1.45 0 0 1 -0.5245,1.62 L 24.9985,42.5 Z"
     fill="#fca326"
     style="stroke-width:0.5" />
  <path
     d="m 41.805,20.9665 h -9.8055 l 4.212,-12.969 c 0.216,-0.6635 1.1575,-0.6635 1.381,0 z"
     fill="#e24329"
     style="stroke-width:0.5" />
  <path
     fill="#fc6d26"
     d="M 24.9985,42.5 32,20.9665 h 9.805 z m 0,0 -16.796,-21.5335 h 9.8055 z"
     style="stroke-width:0.5" />
</svg>
