<svg xmlns="http://www.w3.org/2000/svg" width="100" height="100" viewBox="0 0 100 100"><path fill="#ccc" d="M0 0h100v100H0z"/><path class="st3" d="M49.997 85L64 41.932H36.016z" fill="#e24329"/><path class="st4" d="M16.405 41.933l-4.263 13.084a2.9 2.9 0 001.049 3.24L49.998 85z" fill="#fca326"/><path class="st3" d="M16.405 41.933h19.611l-8.44-25.938c-.432-1.327-2.314-1.327-2.762 0z" fill="#e24329"/><path class="st4" d="M83.61 41.933l4.248 13.084a2.9 2.9 0 01-1.049 3.24L49.997 85z" fill="#fca326"/><path class="st3" d="M83.61 41.933H63.999l8.424-25.938c.432-1.327 2.315-1.327 2.762 0z" fill="#e24329"/><path class="st5" fill="#fc6d26" d="M49.997 85L64 41.933h19.61zm0 0L16.405 41.933h19.611z"/></svg>