<svg
   width="50"
   height="50"
   viewBox="0 0 50 50"
   xmlns="http://www.w3.org/2000/svg">
  <path
     style="fill:#0a66c2;stroke-width:2.64425"
     d="M 0,0 H 50 V 50 H 0 Z" />
  <path
     d="m 8.0465,19.121 h 7.266 V 42.5 H 8.0465 Z M 33.538,18.534 a 7.6375,7.6375 0 0 1 0.1765,0.002 7.6375,7.6375 0 0 1 0.102,0.0035 c 0.92,0 1.745,0.076 2.486,0.2205 0.7415,0.145 1.3985,0.358 1.9795,0.634 a 6.3235,6.3235 0 0 1 1.5245,1.0095 6.333,6.333 0 0 1 1.126,1.343 8.155,8.155 0 0 1 0.7805,1.6385 12.175,12.175 0 0 1 0.49,1.8935 c 0.2425,1.339 0.327,2.8225 0.327,4.3965 L 42.527,42.5 h -7.26 V 31.1315 c 0,-0.678 -0.0025,-1.405 -0.065,-2.113 C 35.139,28.31 35.016,27.62 34.777,27.0145 a 3.71,3.71 0 0 0 -0.4525,-0.8365 2.8585,2.8585 0 0 0 -0.67,-0.66 3.049,3.049 0 0 0 -0.93,-0.432 c -0.358,-0.1005 -0.7665,-0.155 -1.2325,-0.155 -0.4725,0 -0.895,0.0455 -1.273,0.1325 a 3.7975,3.7975 0 0 0 -1.0025,0.377 c -0.586,0.3245 -1.0135,0.789 -1.322,1.3485 -0.3085,0.56 -0.499,1.215 -0.612,1.9205 -0.1135,0.706 -0.15,1.4615 -0.15,2.224 v 11.565 H 19.874 v -23.377 h 6.9685 v 3.195 h 0.0985 a 7.6375,7.6375 0 0 1 0.0905,-0.152 7.6375,7.6375 0 0 1 0.095,-0.1495 7.6375,7.6375 0 0 1 0.0975,-0.147 7.6375,7.6375 0 0 1 0.102,-0.145 7.6375,7.6375 0 0 1 0.104,-0.1425 7.6375,7.6375 0 0 1 0.1085,-0.14 7.6375,7.6375 0 0 1 0.111,-0.138 7.6375,7.6375 0 0 1 0.114,-0.135 7.6375,7.6375 0 0 1 0.118,-0.1325 7.6375,7.6375 0 0 1 0.12,-0.129 7.6375,7.6375 0 0 1 0.123,-0.1265 7.6375,7.6375 0 0 1 0.127,-0.1245 7.6375,7.6375 0 0 1 0.129,-0.12 7.6375,7.6375 0 0 1 0.1325,-0.1175 7.6375,7.6375 0 0 1 0.135,-0.1155 7.6375,7.6375 0 0 1 0.1365,-0.111 7.6375,7.6375 0 0 1 0.14,-0.1085 7.6375,7.6375 0 0 1 0.142,-0.105 7.6375,7.6375 0 0 1 0.145,-0.102 7.6375,7.6375 0 0 1 0.1465,-0.0985 7.6375,7.6375 0 0 1 0.15,-0.095 7.6375,7.6375 0 0 1 0.151,-0.092 7.6375,7.6375 0 0 1 0.153,-0.087 7.6375,7.6375 0 0 1 0.156,-0.085 7.6375,7.6375 0 0 1 0.1575,-0.08 7.6375,7.6375 0 0 1 0.1585,-0.077 7.6375,7.6375 0 0 1 0.1615,-0.074 7.6375,7.6375 0 0 1 0.162,-0.07 7.6375,7.6375 0 0 1 0.164,-0.0655 7.6375,7.6375 0 0 1 0.1665,-0.0625 7.6375,7.6375 0 0 1 0.1665,-0.0575 7.6375,7.6375 0 0 1 0.1685,-0.0545 7.6375,7.6375 0 0 1 0.17,-0.051 7.6375,7.6375 0 0 1 0.1705,-0.046 7.6375,7.6375 0 0 1 0.172,-0.042 7.6375,7.6375 0 0 1 0.172,-0.0385 7.6375,7.6375 0 0 1 0.1735,-0.035 7.6375,7.6375 0 0 1 0.174,-0.0305 7.6375,7.6375 0 0 1 0.175,-0.026 7.6375,7.6375 0 0 1 0.176,-0.023 7.6375,7.6375 0 0 1 0.175,-0.018 7.6375,7.6375 0 0 1 0.177,-0.015 7.6375,7.6375 0 0 1 0.1765,-0.0085 7.6375,7.6375 0 0 1 0.1775,-0.007 7.6375,7.6375 0 0 1 0.1765,-0.002 z M 11.7165,7.5 a 4.2125,4.2125 0 0 1 0.131,0.0035 4.2125,4.2125 0 0 1 0.1315,0.007 4.2125,4.2125 0 0 1 0.13,0.011 4.2125,4.2125 0 0 1 0.1315,0.016 4.2125,4.2125 0 0 1 0.129,0.019 4.2125,4.2125 0 0 1 0.13,0.024 4.2125,4.2125 0 0 1 0.128,0.027 4.2125,4.2125 0 0 1 0.1275,0.032 4.2125,4.2125 0 0 1 0.127,0.035 4.2125,4.2125 0 0 1 0.1245,0.04 4.2125,4.2125 0 0 1 0.1245,0.0425 4.2125,4.2125 0 0 1 0.122,0.0475 4.2125,4.2125 0 0 1 0.121,0.051 4.2125,4.2125 0 0 1 0.12,0.0545 4.2125,4.2125 0 0 1 0.118,0.0585 4.2125,4.2125 0 0 1 0.115,0.0615 4.2125,4.2125 0 0 1 0.115,0.065 4.2125,4.2125 0 0 1 0.1115,0.0695 4.2125,4.2125 0 0 1 0.109,0.0735 4.2125,4.2125 0 0 1 0.1075,0.076 4.2125,4.2125 0 0 1 0.105,0.079 4.2125,4.2125 0 0 1 0.102,0.0815 4.2125,4.2125 0 0 1 0.0995,0.086 4.2125,4.2125 0 0 1 0.0975,0.0885 4.2125,4.2125 0 0 1 0.0935,0.0915 4.2125,4.2125 0 0 1 0.092,0.095 4.2125,4.2125 0 0 1 0.088,0.0975 4.2125,4.2125 0 0 1 0.085,0.0995 4.2125,4.2125 0 0 1 0.0815,0.103 4.2125,4.2125 0 0 1 0.079,0.105 4.2125,4.2125 0 0 1 0.076,0.1075 4.2125,4.2125 0 0 1 0.0715,0.11 4.2125,4.2125 0 0 1 0.069,0.112 4.2125,4.2125 0 0 1 0.0645,0.114 4.2125,4.2125 0 0 1 0.062,0.117 4.2125,4.2125 0 0 1 0.058,0.1175 4.2125,4.2125 0 0 1 0.054,0.12 4.2125,4.2125 0 0 1 0.05,0.121 4.2125,4.2125 0 0 1 0.0465,0.1225 4.2125,4.2125 0 0 1 0.043,0.124 4.2125,4.2125 0 0 1 0.0385,0.126 4.2125,4.2125 0 0 1 0.035,0.1265 4.2125,4.2125 0 0 1 0.03,0.128 4.2125,4.2125 0 0 1 0.0275,0.128 4.2125,4.2125 0 0 1 0.0225,0.13 4.2125,4.2125 0 0 1 0.0195,0.13 4.2125,4.2125 0 0 1 0.015,0.13 4.2125,4.2125 0 0 1 0.01,0.1315 4.2125,4.2125 0 0 1 0.0065,0.1315 4.2125,4.2125 0 0 1 0.0025,0.131 4.2125,4.2125 0 0 1 0,0.0135 4.2125,4.2125 0 0 1 -0.0015,0.1315 4.2125,4.2125 0 0 1 -0.0065,0.131 4.2125,4.2125 0 0 1 -0.01,0.1315 4.2125,4.2125 0 0 1 -0.014,0.13 4.2125,4.2125 0 0 1 -0.019,0.13 4.2125,4.2125 0 0 1 -0.0215,0.13 4.2125,4.2125 0 0 1 -0.027,0.1285 4.2125,4.2125 0 0 1 -0.031,0.1275 4.2125,4.2125 0 0 1 -0.0335,0.127 4.2125,4.2125 0 0 1 -0.0385,0.1255 4.2125,4.2125 0 0 1 -0.042,0.1245 4.2125,4.2125 0 0 1 -0.0465,0.1235 4.2125,4.2125 0 0 1 -0.05,0.121 4.2125,4.2125 0 0 1 -0.054,0.12 4.2125,4.2125 0 0 1 -0.0565,0.1185 4.2125,4.2125 0 0 1 -0.0615,0.1155 4.2125,4.2125 0 0 1 -0.0645,0.1145 4.2125,4.2125 0 0 1 -0.069,0.113 4.2125,4.2125 0 0 1 -0.071,0.11 4.2125,4.2125 0 0 1 -0.075,0.1075 4.2125,4.2125 0 0 1 -0.078,0.105 4.2125,4.2125 0 0 1 -0.0815,0.103 4.2125,4.2125 0 0 1 -0.085,0.101 4.2125,4.2125 0 0 1 -0.088,0.097 4.2125,4.2125 0 0 1 -0.0905,0.095 4.2125,4.2125 0 0 1 -0.094,0.093 4.2125,4.2125 0 0 1 -0.0975,0.0885 4.2125,4.2125 0 0 1 -0.098,0.086 4.2125,4.2125 0 0 1 -0.102,0.0825 4.2125,4.2125 0 0 1 -0.105,0.08 4.2125,4.2125 0 0 1 -0.1065,0.076 4.2125,4.2125 0 0 1 -0.11,0.0735 4.2125,4.2125 0 0 1 -0.111,0.069 4.2125,4.2125 0 0 1 -0.114,0.066 4.2125,4.2125 0 0 1 -0.1155,0.062 4.2125,4.2125 0 0 1 -0.118,0.059 4.2125,4.2125 0 0 1 -0.1185,0.055 4.2125,4.2125 0 0 1 -0.121,0.051 4.2125,4.2125 0 0 1 -0.1225,0.048 4.2125,4.2125 0 0 1 -0.1245,0.044 4.2125,4.2125 0 0 1 -0.1245,0.0395 4.2125,4.2125 0 0 1 -0.1265,0.036 4.2125,4.2125 0 0 1 -0.128,0.032 4.2125,4.2125 0 0 1 -0.128,0.028 4.2125,4.2125 0 0 1 -0.129,0.024 4.2125,4.2125 0 0 1 -0.13,0.02 4.2125,4.2125 0 0 1 -0.13,0.016 4.2125,4.2125 0 0 1 -0.1315,0.0115 4.2125,4.2125 0 0 1 -0.131,0.008 4.2125,4.2125 0 0 1 -0.1315,0.0035 4.2125,4.2125 0 0 1 -0.0475,0 4.2125,4.2125 0 0 1 -0.1325,-0.0025 4.2125,4.2125 0 0 1 -0.13,-0.0055 4.2125,4.2125 0 0 1 -0.1315,-0.01 4.2125,4.2125 0 0 1 -0.131,-0.015 4.2125,4.2125 0 0 1 -0.13,-0.018 A 4.2125,4.2125 0 0 1 10.899,15.852 4.2125,4.2125 0 0 1 10.77,15.8255 4.2125,4.2125 0 0 1 10.6425,15.7955 4.2125,4.2125 0 0 1 10.5155,15.761 4.2125,4.2125 0 0 1 10.39,15.723 4.2125,4.2125 0 0 1 10.2655,15.681 4.2125,4.2125 0 0 1 10.1435,15.6345 4.2125,4.2125 0 0 1 10.021,15.5845 4.2125,4.2125 0 0 1 9.901,15.5305 4.2125,4.2125 0 0 1 9.7835,15.474 4.2125,4.2125 0 0 1 9.667,15.4125 4.2125,4.2125 0 0 1 9.5525,15.348 4.2125,4.2125 0 0 1 9.4405,15.279 4.2125,4.2125 0 0 1 9.3305,15.208 4.2125,4.2125 0 0 1 9.222,15.133 4.2125,4.2125 0 0 1 9.117,15.054 4.2125,4.2125 0 0 1 9.014,14.9725 4.2125,4.2125 0 0 1 8.913,14.8875 4.2125,4.2125 0 0 1 8.816,14.8005 4.2125,4.2125 0 0 1 8.721,14.709 4.2125,4.2125 0 0 1 8.629,14.616 4.2125,4.2125 0 0 1 8.5395,14.5185 4.2125,4.2125 0 0 1 8.4535,14.419 4.2125,4.2125 0 0 1 8.371,14.317 4.2125,4.2125 0 0 1 8.292,14.213 4.2125,4.2125 0 0 1 8.215,14.1055 4.2125,4.2125 0 0 1 8.1425,13.997 4.2125,4.2125 0 0 1 8.0735,13.885 4.2125,4.2125 0 0 1 8.0065,13.772 4.2125,4.2125 0 0 1 7.9445,13.6565 4.2125,4.2125 0 0 1 7.8855,13.5385 4.2125,4.2125 0 0 1 7.8315,13.42 4.2125,4.2125 0 0 1 7.7795,13.299 4.2125,4.2125 0 0 1 7.7315,13.1765 4.2125,4.2125 0 0 1 7.6885,13.052 4.2125,4.2125 0 0 1 7.648,12.9275 4.2125,4.2125 0 0 1 7.613,12.801 4.2125,4.2125 0 0 1 7.58,12.673 4.2125,4.2125 0 0 1 7.553,12.545 4.2125,4.2125 0 0 1 7.529,12.416 4.2125,4.2125 0 0 1 7.509,12.286 4.2125,4.2125 0 0 1 7.493,12.156 4.2125,4.2125 0 0 1 7.4815,12.0245 4.2125,4.2125 0 0 1 7.4735,11.893 a 4.2125,4.2125 0 0 1 -0.003,-0.131 4.2125,4.2125 0 0 1 0,-0.1315 4.2125,4.2125 0 0 1 0.0045,-0.1305 4.2125,4.2125 0 0 1 0.009,-0.1315 4.2125,4.2125 0 0 1 0.0125,-0.13 4.2125,4.2125 0 0 1 0.017,-0.13 4.2125,4.2125 0 0 1 0.0215,-0.13 A 4.2125,4.2125 0 0 1 7.56,10.849 4.2125,4.2125 0 0 1 7.588,10.7215 4.2125,4.2125 0 0 1 7.621,10.5935 4.2125,4.2125 0 0 1 7.658,10.468 4.2125,4.2125 0 0 1 7.699,10.343 4.2125,4.2125 0 0 1 7.743,10.219 4.2125,4.2125 0 0 1 7.7915,10.098 4.2125,4.2125 0 0 1 7.8435,9.9765 4.2125,4.2125 0 0 1 7.9005,9.858 4.2125,4.2125 0 0 1 7.9605,9.7415 4.2125,4.2125 0 0 1 8.0235,9.626 4.2125,4.2125 0 0 1 8.0905,9.5125 4.2125,4.2125 0 0 1 8.1605,9.402 4.2125,4.2125 0 0 1 8.234,9.293 4.2125,4.2125 0 0 1 8.311,9.187 4.2125,4.2125 0 0 1 8.391,9.0825 4.2125,4.2125 0 0 1 8.475,8.982 4.2125,4.2125 0 0 1 8.5625,8.882 4.2125,4.2125 0 0 1 8.6515,8.787 4.2125,4.2125 0 0 1 8.7445,8.6935 4.2125,4.2125 0 0 1 8.8405,8.604 4.2125,4.2125 0 0 1 8.939,8.517 4.2125,4.2125 0 0 1 9.04,8.433 4.2125,4.2125 0 0 1 9.143,8.3515 4.2125,4.2125 0 0 1 9.2495,8.2745 4.2125,4.2125 0 0 1 9.358,8.2 4.2125,4.2125 0 0 1 9.469,8.13 4.2125,4.2125 0 0 1 9.581,8.062 4.2125,4.2125 0 0 1 9.696,7.9985 4.2125,4.2125 0 0 1 9.813,7.9385 4.2125,4.2125 0 0 1 9.9315,7.882 4.2125,4.2125 0 0 1 10.0515,7.829 4.2125,4.2125 0 0 1 10.174,7.78 4.2125,4.2125 0 0 1 10.297,7.735 4.2125,4.2125 0 0 1 10.422,7.694 4.2125,4.2125 0 0 1 10.547,7.657 4.2125,4.2125 0 0 1 10.675,7.623 4.2125,4.2125 0 0 1 10.803,7.593 4.2125,4.2125 0 0 1 10.932,7.5685 4.2125,4.2125 0 0 1 11.061,7.547 4.2125,4.2125 0 0 1 11.191,7.53 4.2125,4.2125 0 0 1 11.3225,7.5165 4.2125,4.2125 0 0 1 11.4535,7.5075 4.2125,4.2125 0 0 1 11.585,7.502 4.2125,4.2125 0 0 1 11.7165,7.5005 Z"
     fill="#ffffff"
     style="stroke-width:0.5" />
</svg>
