<svg xmlns="http://www.w3.org/2000/svg" width="100" height="100" viewBox="0 0 100 100"><path d="M0 0v100h100V0zm86.102 7.723a6.183 6.183 0 01.209.004 6.183 6.183 0 01.209.011 6.183 6.183 0 01.209.018 6.183 6.183 0 01.207.025 6.183 6.183 0 01.207.032 6.183 6.183 0 01.205.039 6.183 6.183 0 01.203.044 6.183 6.183 0 01.203.053 6.183 6.183 0 01.201.06 6.183 6.183 0 01.197.067 6.183 6.183 0 01.196.072 6.183 6.183 0 01.193.08 6.183 6.183 0 01.191.086 6.183 6.183 0 01.188.092 6.183 6.183 0 01.184.098 6.183 6.183 0 01.181.105 6.183 6.183 0 01.178.112 6.183 6.183 0 01.174.117 6.183 6.183 0 01.168.121 6.183 6.183 0 01.166.129 6.183 6.183 0 01.16.135 6.183 6.183 0 01.156.138 6.183 6.183 0 01.152.145 6.183 6.183 0 01.145.148 6.183 6.183 0 01.143.155 6.183 6.183 0 01.134.16 6.183 6.183 0 01.131.162 6.183 6.183 0 01.125.168 6.183 6.183 0 01.12.172 6.183 6.183 0 01.113.175 6.183 6.183 0 01.107.18 6.183 6.183 0 01.102.184 6.183 6.183 0 01.093.185 6.183 6.183 0 01.09.19 6.183 6.183 0 01.082.193 6.183 6.183 0 01.074.193 6.183 6.183 0 01.069.198 6.183 6.183 0 01.062.2 6.183 6.183 0 01.057.202 6.183 6.183 0 01.047.203 6.183 6.183 0 01.043.205 6.183 6.183 0 01.033.207 6.183 6.183 0 01.03.207 6.183 6.183 0 01.019.207 6.183 6.183 0 01.013.21 6.183 6.183 0 01.006.208v72.358a6.187 6.187 0 01-.002.088 6.187 6.187 0 01-.007.209 6.187 6.187 0 01-.018.209 6.187 6.187 0 01-.023.207 6.187 6.187 0 01-.03.207 6.187 6.187 0 01-.039.207 6.187 6.187 0 01-.043.203 6.187 6.187 0 01-.053.203 6.187 6.187 0 01-.058.201 6.187 6.187 0 01-.065.2 6.187 6.187 0 01-.07.197 6.187 6.187 0 01-.078.193 6.187 6.187 0 01-.086.191 6.187 6.187 0 01-.092.188 6.187 6.187 0 01-.095.185 6.187 6.187 0 01-.104.182 6.187 6.187 0 01-.111.178 6.187 6.187 0 01-.116.174 6.187 6.187 0 01-.12.17 6.187 6.187 0 01-.128.166 6.187 6.187 0 01-.132.162 6.187 6.187 0 01-.139.158 6.187 6.187 0 01-.143.152 6.187 6.187 0 01-.148.147 6.187 6.187 0 01-.154.142 6.187 6.187 0 01-.159.137 6.187 6.187 0 01-.162.13 6.187 6.187 0 01-.166.128 6.187 6.187 0 01-.172.12 6.187 6.187 0 01-.175.114 6.187 6.187 0 01-.178.11 6.187 6.187 0 01-.184.101 6.187 6.187 0 01-.185.096 6.187 6.187 0 01-.188.09 6.187 6.187 0 01-.193.084 6.187 6.187 0 01-.193.076 6.187 6.187 0 01-.198.07 6.187 6.187 0 01-.199.065 6.187 6.187 0 01-.201.056 6.187 6.187 0 01-.203.05 6.187 6.187 0 01-.205.044 6.187 6.187 0 01-.205.035 6.187 6.187 0 01-.207.03 6.187 6.187 0 01-.21.02 6.187 6.187 0 01-.208.017 6.187 6.187 0 01-.21.007 6.187 6.187 0 01-.208 0H13.96a6.174 6.174 0 01-.08.002 6.174 6.174 0 01-.21-.004 6.174 6.174 0 01-.208-.011 6.174 6.174 0 01-.207-.018 6.174 6.174 0 01-.207-.025 6.174 6.174 0 01-.207-.033 6.174 6.174 0 01-.205-.04 6.174 6.174 0 01-.203-.044 6.174 6.174 0 01-.204-.053 6.174 6.174 0 01-.199-.06 6.174 6.174 0 01-.199-.067 6.174 6.174 0 01-.195-.074 6.174 6.174 0 01-.194-.078 6.174 6.174 0 01-.19-.086 6.174 6.174 0 01-.187-.094 6.174 6.174 0 01-.183-.1 6.174 6.174 0 01-.182-.103 6.174 6.174 0 01-.178-.112 6.174 6.174 0 01-.171-.117 6.174 6.174 0 01-.17-.123 6.174 6.174 0 01-.164-.129 6.174 6.174 0 01-.16-.133 6.174 6.174 0 01-.157-.14 6.174 6.174 0 01-.15-.145 6.174 6.174 0 01-.147-.148 6.174 6.174 0 01-.14-.154 6.174 6.174 0 01-.135-.16 6.174 6.174 0 01-.131-.163 6.174 6.174 0 01-.125-.168 6.174 6.174 0 01-.117-.172 6.174 6.174 0 01-.113-.177 6.174 6.174 0 01-.108-.178 6.174 6.174 0 01-.1-.184 6.174 6.174 0 01-.095-.187 6.174 6.174 0 01-.088-.19 6.174 6.174 0 01-.08-.191 6.174 6.174 0 01-.076-.195 6.174 6.174 0 01-.069-.198 6.174 6.174 0 01-.06-.199 6.174 6.174 0 01-.055-.203 6.174 6.174 0 01-.049-.203 6.174 6.174 0 01-.04-.205 6.174 6.174 0 01-.036-.205 6.174 6.174 0 01-.025-.207 6.174 6.174 0 01-.022-.21 6.174 6.174 0 01-.012-.206 6.174 6.174 0 01-.006-.21v-72.35a6.17 6.17 0 010-.079 6.17 6.17 0 01.01-.209 6.17 6.17 0 01.016-.209 6.17 6.17 0 01.023-.207 6.17 6.17 0 01.03-.207 6.17 6.17 0 01.037-.205 6.17 6.17 0 01.043-.205 6.17 6.17 0 01.05-.203 6.17 6.17 0 01.057-.2 6.17 6.17 0 01.065-.199 6.17 6.17 0 01.072-.197 6.17 6.17 0 01.076-.193 6.17 6.17 0 01.084-.192 6.17 6.17 0 01.092-.187 6.17 6.17 0 01.096-.186 6.17 6.17 0 01.103-.181 6.17 6.17 0 01.11-.178 6.17 6.17 0 01.115-.176 6.17 6.17 0 01.12-.17 6.17 6.17 0 01.126-.166 6.17 6.17 0 01.133-.162 6.17 6.17 0 01.138-.156 6.17 6.17 0 01.143-.153 6.17 6.17 0 01.146-.148 6.17 6.17 0 01.155-.143 6.17 6.17 0 01.156-.136 6.17 6.17 0 01.162-.131 6.17 6.17 0 01.166-.127 6.17 6.17 0 01.172-.121 6.17 6.17 0 01.174-.113 6.17 6.17 0 01.178-.11 6.17 6.17 0 01.183-.103 6.17 6.17 0 01.186-.096 6.17 6.17 0 01.187-.09 6.17 6.17 0 01.192-.084 6.17 6.17 0 01.193-.076 6.17 6.17 0 01.197-.07 6.17 6.17 0 01.2-.065 6.17 6.17 0 01.2-.056 6.17 6.17 0 01.204-.051 6.17 6.17 0 01.203-.043 6.17 6.17 0 01.207-.037 6.17 6.17 0 01.205-.03 6.17 6.17 0 01.209-.021 6.17 6.17 0 01.207-.016 6.17 6.17 0 01.209-.008 6.17 6.17 0 01.209-.001 6.17 6.17 0 00-.21.001 6.17 6.17 0 00-.208.008 6.17 6.17 0 00-.207.016 6.17 6.17 0 00-.21.021 6.17 6.17 0 00-.204.03 6.17 6.17 0 00-.207.037 6.17 6.17 0 00-.203.043 6.17 6.17 0 00-.203.05 6.17 6.17 0 00-.202.057 6.17 6.17 0 00-.199.065 6.17 6.17 0 00-.197.07 6.17 6.17 0 00-.193.076 6.17 6.17 0 00-.192.084 6.17 6.17 0 00-.187.09 6.17 6.17 0 00-.186.096 6.17 6.17 0 00-.183.103 6.17 6.17 0 00-.178.11 6.17 6.17 0 00-.174.113 6.17 6.17 0 00-.172.12 6.17 6.17 0 00-.166.128 6.17 6.17 0 00-.162.13 6.17 6.17 0 00-.156.137 6.17 6.17 0 00-.155.143 6.17 6.17 0 00-.146.148 6.17 6.17 0 00-.143.153 6.17 6.17 0 00-.138.156 6.17 6.17 0 00-.133.162 6.17 6.17 0 00-.125.166 6.17 6.17 0 00-.121.17 6.17 6.17 0 00-.115.176 6.17 6.17 0 00-.11.178 6.17 6.17 0 00-.103.181 6.17 6.17 0 00-.096.186 6.17 6.17 0 00-.092.187 6.17 6.17 0 00-.084.192 6.17 6.17 0 00-.076.193 6.17 6.17 0 00-.072.197 6.17 6.17 0 00-.065.2 6.17 6.17 0 00-.056.199 6.17 6.17 0 00-.051.203 6.17 6.17 0 00-.043.205 6.17 6.17 0 00-.037.205 6.17 6.17 0 00-.03.207 6.17 6.17 0 00-.023.207 6.17 6.17 0 00-.016.21 6.17 6.17 0 00-.01.208 6.17 6.17 0 000 .078v72.352a6.174 6.174 0 00.006.209 6.174 6.174 0 00.012.207 6.174 6.174 0 00.022.209 6.174 6.174 0 00.025.207 6.174 6.174 0 00.035.205 6.174 6.174 0 00.041.205 6.174 6.174 0 00.049.203 6.174 6.174 0 00.055.203 6.174 6.174 0 00.06.2 6.174 6.174 0 00.069.197 6.174 6.174 0 00.076.195 6.174 6.174 0 00.08.191 6.174 6.174 0 00.088.19 6.174 6.174 0 00.096.187 6.174 6.174 0 00.1.184 6.174 6.174 0 00.107.178 6.174 6.174 0 00.113.177 6.174 6.174 0 00.117.172 6.174 6.174 0 00.125.168 6.174 6.174 0 00.13.162 6.174 6.174 0 00.136.16 6.174 6.174 0 00.14.155 6.174 6.174 0 00.147.148 6.174 6.174 0 00.15.145 6.174 6.174 0 00.156.14 6.174 6.174 0 00.16.133 6.174 6.174 0 00.165.13 6.174 6.174 0 00.17.122 6.174 6.174 0 00.171.117 6.174 6.174 0 00.178.112 6.174 6.174 0 00.182.103 6.174 6.174 0 00.183.1 6.174 6.174 0 00.188.094 6.174 6.174 0 00.19.086 6.174 6.174 0 00.193.078 6.174 6.174 0 00.195.074 6.174 6.174 0 00.2.066 6.174 6.174 0 00.198.06 6.174 6.174 0 00.204.054 6.174 6.174 0 00.203.044 6.174 6.174 0 00.205.04 6.174 6.174 0 00.207.033 6.174 6.174 0 00.207.025 6.174 6.174 0 00.207.018 6.174 6.174 0 00.209.011 6.174 6.174 0 00.209.004 6.174 6.174 0 00.08-.002h72.053a6.187 6.187 0 00.209 0 6.187 6.187 0 00.209-.007 6.187 6.187 0 00.209-.016 6.187 6.187 0 00.209-.022 6.187 6.187 0 00.207-.029 6.187 6.187 0 00.205-.035 6.187 6.187 0 00.205-.045 6.187 6.187 0 00.203-.049 6.187 6.187 0 00.201-.056 6.187 6.187 0 00.2-.065 6.187 6.187 0 00.197-.07 6.187 6.187 0 00.193-.076 6.187 6.187 0 00.193-.084 6.187 6.187 0 00.188-.09 6.187 6.187 0 00.185-.096 6.187 6.187 0 00.184-.101 6.187 6.187 0 00.178-.11 6.187 6.187 0 00.175-.113 6.187 6.187 0 00.172-.121 6.187 6.187 0 00.166-.127 6.187 6.187 0 00.162-.131 6.187 6.187 0 00.159-.137 6.187 6.187 0 00.154-.142 6.187 6.187 0 00.148-.147 6.187 6.187 0 00.143-.152 6.187 6.187 0 00.139-.158 6.187 6.187 0 00.132-.162 6.187 6.187 0 00.127-.166 6.187 6.187 0 00.121-.17 6.187 6.187 0 00.116-.174 6.187 6.187 0 00.111-.178 6.187 6.187 0 00.104-.182 6.187 6.187 0 00.095-.185 6.187 6.187 0 00.092-.188 6.187 6.187 0 00.086-.191 6.187 6.187 0 00.078-.193 6.187 6.187 0 00.07-.198 6.187 6.187 0 00.065-.199 6.187 6.187 0 00.058-.201 6.187 6.187 0 00.053-.203 6.187 6.187 0 00.043-.203 6.187 6.187 0 00.04-.207 6.187 6.187 0 00.029-.207 6.187 6.187 0 00.023-.207 6.187 6.187 0 00.018-.21 6.187 6.187 0 00.007-.208 6.187 6.187 0 00.002-.088V13.818a6.183 6.183 0 00-.006-.209 6.183 6.183 0 00-.013-.209 6.183 6.183 0 00-.02-.207 6.183 6.183 0 00-.029-.207 6.183 6.183 0 00-.033-.207 6.183 6.183 0 00-.043-.205 6.183 6.183 0 00-.047-.203 6.183 6.183 0 00-.057-.201 6.183 6.183 0 00-.062-.201 6.183 6.183 0 00-.069-.198 6.183 6.183 0 00-.074-.193 6.183 6.183 0 00-.082-.193 6.183 6.183 0 00-.09-.19 6.183 6.183 0 00-.093-.185 6.183 6.183 0 00-.102-.184 6.183 6.183 0 00-.107-.18 6.183 6.183 0 00-.114-.175 6.183 6.183 0 00-.119-.172 6.183 6.183 0 00-.125-.168 6.183 6.183 0 00-.13-.162 6.183 6.183 0 00-.135-.16 6.183 6.183 0 00-.143-.155 6.183 6.183 0 00-.145-.148 6.183 6.183 0 00-.152-.145 6.183 6.183 0 00-.156-.138 6.183 6.183 0 00-.16-.135 6.183 6.183 0 00-.166-.129 6.183 6.183 0 00-.168-.121 6.183 6.183 0 00-.174-.117 6.183 6.183 0 00-.178-.112 6.183 6.183 0 00-.181-.105 6.183 6.183 0 00-.184-.098 6.183 6.183 0 00-.188-.092 6.183 6.183 0 00-.191-.085 6.183 6.183 0 00-.193-.08 6.183 6.183 0 00-.196-.073 6.183 6.183 0 00-.197-.066 6.183 6.183 0 00-.201-.06 6.183 6.183 0 00-.203-.054 6.183 6.183 0 00-.203-.044 6.183 6.183 0 00-.205-.04 6.183 6.183 0 00-.207-.03 6.183 6.183 0 00-.207-.026 6.183 6.183 0 00-.21-.018 6.183 6.183 0 00-.208-.011 6.183 6.183 0 00-.21-.004z" fill="#0a66c2"/><path d="M16.093 38.242h14.532V85H16.093zm50.983-1.174a15.275 15.275 0 01.353.004 15.275 15.275 0 01.204.007c1.84 0 3.49.152 4.972.441 1.483.29 2.797.716 3.959 1.268a12.647 12.647 0 013.049 2.019 12.666 12.666 0 012.252 2.686 16.31 16.31 0 011.561 3.277 24.35 24.35 0 01.98 3.787c.485 2.678.654 5.645.654 8.793L85.054 85h-14.52V62.263c0-1.356-.005-2.81-.13-4.226-.126-1.417-.372-2.797-.85-4.008a7.42 7.42 0 00-.905-1.673 5.717 5.717 0 00-1.34-1.32 6.098 6.098 0 00-1.86-.864c-.716-.201-1.533-.31-2.465-.31-.945 0-1.79.091-2.546.265a7.595 7.595 0 00-2.005.754c-1.172.649-2.027 1.578-2.644 2.697-.617 1.12-.998 2.43-1.224 3.841-.227 1.412-.3 2.923-.3 4.448v23.13H39.748V38.243h13.937v6.39h.197a15.275 15.275 0 01.181-.304 15.275 15.275 0 01.19-.299 15.275 15.275 0 01.195-.294 15.275 15.275 0 01.204-.29 15.275 15.275 0 01.208-.285 15.275 15.275 0 01.217-.28 15.275 15.275 0 01.222-.276 15.275 15.275 0 01.228-.27 15.275 15.275 0 01.236-.265 15.275 15.275 0 01.24-.258 15.275 15.275 0 01.246-.253 15.275 15.275 0 01.254-.249 15.275 15.275 0 01.258-.24 15.275 15.275 0 01.265-.235 15.275 15.275 0 01.27-.231 15.275 15.275 0 01.273-.222 15.275 15.275 0 01.28-.217 15.275 15.275 0 01.284-.21 15.275 15.275 0 01.29-.204 15.275 15.275 0 01.293-.197 15.275 15.275 0 01.3-.19 15.275 15.275 0 01.302-.184 15.275 15.275 0 01.306-.174 15.275 15.275 0 01.312-.17 15.275 15.275 0 01.315-.16 15.275 15.275 0 01.317-.154 15.275 15.275 0 01.323-.148 15.275 15.275 0 01.324-.14 15.275 15.275 0 01.328-.131 15.275 15.275 0 01.333-.125 15.275 15.275 0 01.333-.115 15.275 15.275 0 01.337-.109 15.275 15.275 0 01.34-.102 15.275 15.275 0 01.341-.092 15.275 15.275 0 01.344-.084 15.275 15.275 0 01.344-.077 15.275 15.275 0 01.347-.07 15.275 15.275 0 01.348-.061 15.275 15.275 0 01.35-.052 15.275 15.275 0 01.352-.046 15.275 15.275 0 01.35-.036 15.275 15.275 0 01.354-.03 15.275 15.275 0 01.353-.017 15.275 15.275 0 01.355-.014 15.275 15.275 0 01.353-.004zM23.433 15a8.425 8.425 0 01.262.007 8.425 8.425 0 01.263.014 8.425 8.425 0 01.26.022 8.425 8.425 0 01.263.032 8.425 8.425 0 01.258.038 8.425 8.425 0 01.26.048 8.425 8.425 0 01.256.054 8.425 8.425 0 01.255.064 8.425 8.425 0 01.254.07 8.425 8.425 0 01.249.08 8.425 8.425 0 01.249.085 8.425 8.425 0 01.244.095 8.425 8.425 0 01.242.102 8.425 8.425 0 01.24.109 8.425 8.425 0 01.236.117 8.425 8.425 0 01.23.123 8.425 8.425 0 01.23.13 8.425 8.425 0 01.223.139 8.425 8.425 0 01.218.147 8.425 8.425 0 01.215.152 8.425 8.425 0 01.21.158 8.425 8.425 0 01.204.163 8.425 8.425 0 01.199.172 8.425 8.425 0 01.195.177 8.425 8.425 0 01.187.183 8.425 8.425 0 01.184.19 8.425 8.425 0 01.176.195 8.425 8.425 0 01.17.199 8.425 8.425 0 01.163.206 8.425 8.425 0 01.158.21 8.425 8.425 0 01.152.215 8.425 8.425 0 01.143.22 8.425 8.425 0 01.138.224 8.425 8.425 0 01.129.228 8.425 8.425 0 01.124.234 8.425 8.425 0 01.116.235 8.425 8.425 0 01.108.24 8.425 8.425 0 01.1.242 8.425 8.425 0 01.093.245 8.425 8.425 0 01.086.248 8.425 8.425 0 01.077.252 8.425 8.425 0 01.07.253 8.425 8.425 0 01.06.256 8.425 8.425 0 01.055.256 8.425 8.425 0 01.045.26 8.425 8.425 0 01.039.26 8.425 8.425 0 01.03.26 8.425 8.425 0 01.02.263 8.425 8.425 0 01.013.263 8.425 8.425 0 01.005.262 8.425 8.425 0 010 .027 8.425 8.425 0 01-.003.263 8.425 8.425 0 01-.013.262 8.425 8.425 0 01-.02.263 8.425 8.425 0 01-.028.26 8.425 8.425 0 01-.038.26 8.425 8.425 0 01-.043.26 8.425 8.425 0 01-.054.257 8.425 8.425 0 01-.062.255 8.425 8.425 0 01-.067.254 8.425 8.425 0 01-.077.251 8.425 8.425 0 01-.084.249 8.425 8.425 0 01-.093.247 8.425 8.425 0 01-.1.242 8.425 8.425 0 01-.108.24 8.425 8.425 0 01-.113.237 8.425 8.425 0 01-.123.231 8.425 8.425 0 01-.129.229 8.425 8.425 0 01-.138.226 8.425 8.425 0 01-.142.22 8.425 8.425 0 01-.15.215 8.425 8.425 0 01-.156.21 8.425 8.425 0 01-.163.206 8.425 8.425 0 01-.17.202 8.425 8.425 0 01-.176.194 8.425 8.425 0 01-.181.19 8.425 8.425 0 01-.188.186 8.425 8.425 0 01-.195.177 8.425 8.425 0 01-.196.172 8.425 8.425 0 01-.204.165 8.425 8.425 0 01-.21.16 8.425 8.425 0 01-.213.152 8.425 8.425 0 01-.22.147 8.425 8.425 0 01-.222.138 8.425 8.425 0 01-.228.132 8.425 8.425 0 01-.231.124 8.425 8.425 0 01-.236.118 8.425 8.425 0 01-.237.11 8.425 8.425 0 01-.242.102 8.425 8.425 0 01-.245.096 8.425 8.425 0 01-.249.088 8.425 8.425 0 01-.249.079 8.425 8.425 0 01-.253.072 8.425 8.425 0 01-.256.064 8.425 8.425 0 01-.256.056 8.425 8.425 0 01-.258.048 8.425 8.425 0 01-.26.04 8.425 8.425 0 01-.26.032 8.425 8.425 0 01-.263.023 8.425 8.425 0 01-.262.016 8.425 8.425 0 01-.263.007 8.425 8.425 0 01-.095 0 8.425 8.425 0 01-.265-.005 8.425 8.425 0 01-.26-.011 8.425 8.425 0 01-.263-.02 8.425 8.425 0 01-.262-.03 8.425 8.425 0 01-.26-.036 8.425 8.425 0 01-.259-.045 8.425 8.425 0 01-.258-.053 8.425 8.425 0 01-.255-.06 8.425 8.425 0 01-.254-.069 8.425 8.425 0 01-.251-.076 8.425 8.425 0 01-.249-.084 8.425 8.425 0 01-.244-.093 8.425 8.425 0 01-.245-.1 8.425 8.425 0 01-.24-.108 8.425 8.425 0 01-.235-.113 8.425 8.425 0 01-.233-.123 8.425 8.425 0 01-.229-.129 8.425 8.425 0 01-.224-.138 8.425 8.425 0 01-.22-.142 8.425 8.425 0 01-.217-.15 8.425 8.425 0 01-.21-.158 8.425 8.425 0 01-.206-.163 8.425 8.425 0 01-.202-.17 8.425 8.425 0 01-.194-.174 8.425 8.425 0 01-.19-.183 8.425 8.425 0 01-.184-.186 8.425 8.425 0 01-.179-.195 8.425 8.425 0 01-.172-.199 8.425 8.425 0 01-.165-.204 8.425 8.425 0 01-.158-.208 8.425 8.425 0 01-.154-.215 8.425 8.425 0 01-.145-.217 8.425 8.425 0 01-.138-.224 8.425 8.425 0 01-.134-.226 8.425 8.425 0 01-.124-.231 8.425 8.425 0 01-.118-.236 8.425 8.425 0 01-.108-.237 8.425 8.425 0 01-.104-.242 8.425 8.425 0 01-.096-.245 8.425 8.425 0 01-.086-.249 8.425 8.425 0 01-.081-.249 8.425 8.425 0 01-.07-.253 8.425 8.425 0 01-.066-.256 8.425 8.425 0 01-.054-.256 8.425 8.425 0 01-.048-.258 8.425 8.425 0 01-.04-.26 8.425 8.425 0 01-.032-.26 8.425 8.425 0 01-.023-.263 8.425 8.425 0 01-.016-.263 8.425 8.425 0 01-.006-.262 8.425 8.425 0 010-.263A8.425 8.425 0 0114.95 23a8.425 8.425 0 01.018-.263 8.425 8.425 0 01.025-.26 8.425 8.425 0 01.034-.26 8.425 8.425 0 01.043-.26 8.425 8.425 0 01.05-.259 8.425 8.425 0 01.056-.255 8.425 8.425 0 01.066-.256 8.425 8.425 0 01.074-.251 8.425 8.425 0 01.082-.25 8.425 8.425 0 01.088-.248 8.425 8.425 0 01.097-.242 8.425 8.425 0 01.104-.243 8.425 8.425 0 01.114-.237 8.425 8.425 0 01.12-.233 8.425 8.425 0 01.126-.231 8.425 8.425 0 01.134-.227 8.425 8.425 0 01.14-.221 8.425 8.425 0 01.147-.218 8.425 8.425 0 01.154-.212 8.425 8.425 0 01.16-.209 8.425 8.425 0 01.168-.201 8.425 8.425 0 01.175-.2 8.425 8.425 0 01.178-.19 8.425 8.425 0 01.186-.187 8.425 8.425 0 01.192-.179 8.425 8.425 0 01.197-.174 8.425 8.425 0 01.202-.168 8.425 8.425 0 01.206-.163 8.425 8.425 0 01.213-.154 8.425 8.425 0 01.217-.149 8.425 8.425 0 01.222-.14 8.425 8.425 0 01.224-.136 8.425 8.425 0 01.23-.127 8.425 8.425 0 01.234-.12 8.425 8.425 0 01.237-.113 8.425 8.425 0 01.24-.106 8.425 8.425 0 01.245-.098 8.425 8.425 0 01.246-.09 8.425 8.425 0 01.25-.082 8.425 8.425 0 01.25-.074 8.425 8.425 0 01.256-.068 8.425 8.425 0 01.256-.06 8.425 8.425 0 01.258-.049 8.425 8.425 0 01.258-.043 8.425 8.425 0 01.26-.034 8.425 8.425 0 01.263-.027 8.425 8.425 0 01.262-.018 8.425 8.425 0 01.263-.011 8.425 8.425 0 01.263-.003z" fill="#fff"/></svg>