<svg xmlns="http://www.w3.org/2000/svg" width="100" height="100" viewBox="0 0 100 100"><path fill="#1d9bf0" d="M0 0h100v100H0z"/><path class="st0" d="M77.834 35.72c.042.617.042 1.234.042 1.857 0 18.977-14.446 40.863-40.862 40.863v-.012A40.657 40.657 0 0115 71.99a28.839 28.839 0 0021.255-5.952 14.38 14.38 0 01-13.418-9.973c2.153.415 4.371.33 6.484-.248a14.363 14.363 0 01-11.52-14.076v-.182a14.27 14.27 0 006.518 1.797c-6.31-4.217-8.255-12.612-4.445-19.176a40.761 40.761 0 0029.598 15.004 14.37 14.37 0 014.155-13.721c5.785-5.438 14.882-5.159 20.32.622a28.818 28.818 0 009.12-3.486 14.415 14.415 0 01-6.314 7.943A28.562 28.562 0 0085 28.28a29.176 29.176 0 01-7.166 7.44z" fill="#fff"/></svg>