<svg
   width="50"
   height="50"
   viewBox="0 0 50 50"
   xmlns="http://www.w3.org/2000/svg">
  <path
     fill="#1d9bf0"
     d="M 0,0 H 50 V 50 H 0 Z"
     style="stroke-width:0.5" />
  <path
     d="m 38.917,17.86 c 0.021,0.3085 0.021,0.617 0.021,0.9285 0,9.4885 -7.223,20.4315 -20.431,20.4315 V 39.214 A 20.3285,20.3285 0 0 1 7.5,35.995 14.4195,14.4195 0 0 0 18.1275,33.019 7.19,7.19 0 0 1 11.4185,28.0325 c 1.0765,0.2075 2.1855,0.165 3.242,-0.124 a 7.1815,7.1815 0 0 1 -5.76,-7.038 v -0.091 a 7.135,7.135 0 0 0 3.259,0.8985 C 9.0045,19.5695 8.032,15.372 9.937,12.09 a 20.3805,20.3805 0 0 0 14.799,7.502 7.185,7.185 0 0 1 2.0775,-6.8605 c 2.8925,-2.719 7.441,-2.5795 10.16,0.311 a 14.409,14.409 0 0 0 4.56,-1.743 7.2075,7.2075 0 0 1 -3.157,3.9715 14.281,14.281 0 0 0 4.1235,-1.131 14.588,14.588 0 0 1 -3.583,3.72 z"
     fill="#ffffff"
     style="stroke-width:0.5" />
</svg>
